<svg width="600" height="600" version="1.1" xmlns="http://www.w3.org/2000/svg" desc="Created with imagetracer.js version 1.2.6" ><path fill="rgb(237,220,12)" stroke="rgb(237,220,12)" stroke-width="1" opacity="0.9254901960784314" d="M 286.5 93 L 295 93.5 L 286.5 94 L 286.5 93 Z " /><path fill="rgb(237,220,12)" stroke="rgb(237,220,12)" stroke-width="1" opacity="0.9254901960784314" d="M 304.5 93 L 313 93.5 L 304.5 94 L 304.5 93 Z " /><path fill="rgb(237,220,12)" stroke="rgb(237,220,12)" stroke-width="1" opacity="0.9254901960784314" d="M 278.5 94 L 282 94.5 L 278.5 95 L 278.5 94 Z " /><path fill="rgb(237,220,12)" stroke="rgb(237,220,12)" stroke-width="1" opacity="0.9254901960784314" d="M 317.5 94 L 321 94.5 L 317.5 95 L 317.5 94 Z " /><path fill="rgb(237,220,12)" stroke="rgb(237,220,12)" stroke-width="1" opacity="0.9254901960784314" d="M 271.5 95 L 275 95.5 L 271.5 96 L 271.5 95 Z " /><path fill="rgb(237,220,12)" stroke="rgb(237,220,12)" stroke-width="1" opacity="0.9254901960784314" d="M 324.5 95 L 327 95.5 L 324.5 96 L 324.5 95 Z " /><path fill="rgb(237,220,12)" stroke="rgb(237,220,12)" stroke-width="1" opacity="0.9254901960784314" d="M 262.5 97 L 265 97.5 L 262.5 98 L 262.5 97 Z " /><path fill="rgb(237,220,12)" stroke="rgb(237,220,12)" stroke-width="1" opacity="0.9254901960784314" d="M 334.5 97 L 337 97.5 L 334.5 98 L 334.5 97 Z " /><path fill="rgb(237,220,12)" stroke="rgb(237,220,12)" stroke-width="1" opacity="0.9254901960784314" d="M 232.5 108 L 231.5 110 L 229.5 111 L 230.5 109 L 232.5 108 Z " /><path fill="rgb(237,220,12)" stroke="rgb(237,220,12)" stroke-width="1" opacity="0.9254901960784314" d="M 375.5 113 L 376.5 115 L 375.5 113 Z " /><path fill="rgb(237,220,12)" stroke="rgb(237,220,12)" stroke-width="1" opacity="0.9254901960784314" d="M 221.5 114 L 220.5 116 L 221.5 114 Z " /><path fill="rgb(237,220,12)" stroke="rgb(237,220,12)" stroke-width="1" opacity="0.9254901960784314" d="M 218.5 116 L 217.5 118 L 218.5 116 Z " /><path fill="rgb(237,220,12)" stroke="rgb(237,220,12)" stroke-width="1" opacity="0.9254901960784314" d="M 380.5 116 L 381.5 118 L 380.5 116 Z " /><path fill="rgb(237,220,12)" stroke="rgb(237,220,12)" stroke-width="1" opacity="0.9254901960784314" d="M 383.5 118 L 384.5 120 L 383.5 118 Z " /><path fill="rgb(237,220,12)" stroke="rgb(237,220,12)" stroke-width="1" opacity="0.9254901960784314" d="M 212.5 120 L 211.5 122 L 212.5 120 Z " /><path fill="rgb(237,220,12)" stroke="rgb(237,220,12)" stroke-width="1" opacity="0.9254901960784314" d="M 386.5 120 L 387.5 122 L 386.5 120 Z " /><path fill="rgb(237,220,12)" stroke="rgb(237,220,12)" stroke-width="1" opacity="0.9254901960784314" d="M 209.5 122 L 207.5 125 L 209.5 122 Z " /><path fill="rgb(237,220,12)" stroke="rgb(237,220,12)" stroke-width="1" opacity="0.9254901960784314" d="M 390.5 123 L 391.5 125 L 390.5 123 Z " /><path fill="rgb(237,220,12)" stroke="rgb(237,220,12)" stroke-width="1" opacity="0.9254901960784314" d="M 204.5 126 L 203.5 128 L 204.5 126 Z " /><path fill="rgb(237,220,12)" stroke="rgb(237,220,12)" stroke-width="1" opacity="0.9254901960784314" d="M 394.5 126 L 396.5 129 L 394.5 126 Z " /><path fill="rgb(237,220,12)" stroke="rgb(237,220,12)" stroke-width="1" opacity="0.9254901960784314" d="M 198.5 131 L 185.5 145 L 198.5 131 Z " /><path fill="rgb(237,220,12)" stroke="rgb(237,220,12)" stroke-width="1" opacity="0.9254901960784314" d="M 401.5 132 L 412.5 144 L 401.5 132 Z " /><path fill="rgb(237,220,12)" stroke="rgb(237,220,12)" stroke-width="1" opacity="0.9254901960784314" d="M 415.5 147 L 417.5 150 L 415.5 147 Z " /><path fill="rgb(237,220,12)" stroke="rgb(237,220,12)" stroke-width="1" opacity="0.9254901960784314" d="M 182.5 148 L 180.5 151 L 182.5 148 Z " /><path fill="rgb(237,220,12)" stroke="rgb(237,220,12)" stroke-width="1" opacity="0.9254901960784314" d="M 419.5 152 L 421.5 155 L 419.5 152 Z " /><path fill="rgb(237,220,12)" stroke="rgb(237,220,12)" stroke-width="1" opacity="0.9254901960784314" d="M 178.5 153 L 177.5 155 L 178.5 153 Z " /><path fill="rgb(237,220,12)" stroke="rgb(237,220,12)" stroke-width="1" opacity="0.9254901960784314" d="M 422.5 156 L 423.5 158 L 422.5 156 Z " /><path fill="rgb(237,220,12)" stroke="rgb(237,220,12)" stroke-width="1" opacity="0.9254901960784314" d="M 173.5 160 L 172.5 162 L 173.5 160 Z " /><path fill="rgb(237,220,12)" stroke="rgb(237,220,12)" stroke-width="1" opacity="0.9254901960784314" d="M 428.5 165 L 429.5 167 L 428.5 165 Z " /><path fill="rgb(237,220,12)" stroke="rgb(237,220,12)" stroke-width="1" opacity="0.9254901960784314" d="M 298.5 194 L 301 194.5 L 298.5 195 L 298.5 194 Z " /><path fill="rgb(237,220,12)" stroke="rgb(237,220,12)" stroke-width="1" opacity="0.9254901960784314" d="M 289.5 195 L 293 195.5 L 289.5 196 L 289.5 195 Z " /><path fill="rgb(237,220,12)" stroke="rgb(237,220,12)" stroke-width="1" opacity="0.9254901960784314" d="M 306.5 195 L 310 195.5 L 306.5 196 L 306.5 195 Z " /><path fill="rgb(237,220,12)" stroke="rgb(237,220,12)" stroke-width="1" opacity="0.9254901960784314" d="M 277.5 199 L 279 199.5 L 276.5 201 L 277.5 199 Z " /><path fill="rgb(237,220,12)" stroke="rgb(237,220,12)" stroke-width="1" opacity="0.9254901960784314" d="M 326.5 202 L 327.5 204 L 326.5 202 Z " /><path fill="rgb(237,220,12)" stroke="rgb(237,220,12)" stroke-width="1" opacity="0.9254901960784314" d="M 269.5 204 L 268.5 206 L 269.5 204 Z " /><path fill="rgb(237,220,12)" stroke="rgb(237,220,12)" stroke-width="1" opacity="0.9254901960784314" d="M 329.5 204 L 331.5 207 L 329.5 204 Z " /><path fill="rgb(237,220,12)" stroke="rgb(237,220,12)" stroke-width="1" opacity="0.9254901960784314" d="M 447.5 210 L 448 212.5 L 447 212.5 L 447.5 210 Z " /><path fill="rgb(237,220,12)" stroke="rgb(237,220,12)" stroke-width="1" opacity="0.9254901960784314" d="M 338.5 213 L 339.5 215 L 338.5 213 Z " /><path fill="rgb(237,220,12)" stroke="rgb(237,220,12)" stroke-width="1" opacity="0.9254901960784314" d="M 150.5 214 L 151 216.5 L 150 216.5 L 150.5 214 Z " /><path fill="rgb(237,220,12)" stroke="rgb(237,220,12)" stroke-width="1" opacity="0.9254901960784314" d="M 259.5 214 L 258.5 216 L 259.5 214 Z " /><path fill="rgb(237,220,12)" stroke="rgb(237,220,12)" stroke-width="1" opacity="0.9254901960784314" d="M 448.5 215 L 449 217.5 L 448 217.5 L 448.5 215 Z " /><path fill="rgb(237,220,12)" stroke="rgb(237,220,12)" stroke-width="1" opacity="0.9254901960784314" d="M 257.5 217 L 256.5 219 L 257.5 217 Z " /><path fill="rgb(237,220,12)" stroke="rgb(237,220,12)" stroke-width="1" opacity="0.9254901960784314" d="M 149.5 220 L 150 222.5 L 149 222.5 L 149.5 220 Z " /><path fill="rgb(237,220,12)" stroke="rgb(237,220,12)" stroke-width="1" opacity="0.9254901960784314" d="M 449.5 220 L 450 223.5 L 449 223.5 L 449.5 220 Z " /><path fill="rgb(237,220,12)" stroke="rgb(237,220,12)" stroke-width="1" opacity="0.9254901960784314" d="M 148.5 226 L 149 230.5 L 148 230.5 L 148.5 226 Z " /><path fill="rgb(237,220,12)" stroke="rgb(237,220,12)" stroke-width="1" opacity="0.9254901960784314" d="M 450.5 228 L 451 232.5 L 450 232.5 L 450.5 228 Z " /><path fill="rgb(237,220,12)" stroke="rgb(237,220,12)" stroke-width="1" opacity="0.9254901960784314" d="M 250.5 232 L 251 234.5 L 250 234.5 L 250.5 232 Z " /><path fill="rgb(237,220,12)" stroke="rgb(237,220,12)" stroke-width="1" opacity="0.9254901960784314" d="M 249.5 237 L 250 242.5 L 249 242.5 L 249.5 237 Z " /><path fill="rgb(237,220,12)" stroke="rgb(237,220,12)" stroke-width="1" opacity="0.9254901960784314" d="M 147.5 238 L 148 250.5 L 147 250.5 L 147.5 238 Z " /><path fill="rgb(237,220,12)" stroke="rgb(237,220,12)" stroke-width="1" opacity="0.9254901960784314" d="M 349.5 238 L 350 251.5 L 349 251.5 L 349.5 238 Z " /><path fill="rgb(237,220,12)" stroke="rgb(237,220,12)" stroke-width="1" opacity="0.9254901960784314" d="M 451.5 241 L 452 246.5 L 451 246.5 L 451.5 241 Z " /><path fill="rgb(237,220,12)" stroke="rgb(237,220,12)" stroke-width="1" opacity="0.9254901960784314" d="M 249.5 247 L 250 252.5 L 249 252.5 L 249.5 247 Z " /><path fill="rgb(237,220,12)" stroke="rgb(237,220,12)" stroke-width="1" opacity="0.9254901960784314" d="M 250.5 255 L 251 257.5 L 250 257.5 L 250.5 255 Z " /><path fill="rgb(237,220,12)" stroke="rgb(237,220,12)" stroke-width="1" opacity="0.9254901960784314" d="M 450.5 255 L 451 259.5 L 450 259.5 L 450.5 255 Z " /><path fill="rgb(237,220,12)" stroke="rgb(237,220,12)" stroke-width="1" opacity="0.9254901960784314" d="M 148.5 256 L 149 260.5 L 148 260.5 L 148.5 256 Z " /><path fill="rgb(237,220,12)" stroke="rgb(237,220,12)" stroke-width="1" opacity="0.9254901960784314" d="M 449.5 263 L 450 265.5 L 449 265.5 L 449.5 263 Z " /><path fill="rgb(237,220,12)" stroke="rgb(237,220,12)" stroke-width="1" opacity="0.9254901960784314" d="M 149.5 264 L 150 266.5 L 149 266.5 L 149.5 264 Z " /><path fill="rgb(237,220,12)" stroke="rgb(237,220,12)" stroke-width="1" opacity="0.9254901960784314" d="M 448.5 268 L 449 270.5 L 448 270.5 L 448.5 268 Z " /><path fill="rgb(237,220,12)" stroke="rgb(237,220,12)" stroke-width="1" opacity="0.9254901960784314" d="M 256.5 271 L 257.5 273 L 256.5 271 Z " /><path fill="rgb(237,220,12)" stroke="rgb(237,220,12)" stroke-width="1" opacity="0.9254901960784314" d="M 258.5 274 L 259.5 276 L 258.5 274 Z " /><path fill="rgb(237,220,12)" stroke="rgb(237,220,12)" stroke-width="1" opacity="0.9254901960784314" d="M 339.5 275 L 338.5 277 L 339.5 275 Z " /><path fill="rgb(237,220,12)" stroke="rgb(237,220,12)" stroke-width="1" opacity="0.9254901960784314" d="M 331.5 283 L 329.5 286 L 331.5 283 Z " /><path fill="rgb(237,220,12)" stroke="rgb(237,220,12)" stroke-width="1" opacity="0.9254901960784314" d="M 268.5 284 L 269.5 286 L 268.5 284 Z " /><path fill="rgb(237,220,12)" stroke="rgb(237,220,12)" stroke-width="1" opacity="0.9254901960784314" d="M 327.5 286 L 326.5 288 L 327.5 286 Z " /><path fill="rgb(237,220,12)" stroke="rgb(237,220,12)" stroke-width="1" opacity="0.9254901960784314" d="M 274.5 288 L 279 290.5 L 277.5 291 L 274.5 288 Z " /><path fill="rgb(237,220,12)" stroke="rgb(237,220,12)" stroke-width="1" opacity="0.9254901960784314" d="M 289.5 294 L 292 294.5 L 289.5 295 L 289.5 294 Z " /><path fill="rgb(237,220,12)" stroke="rgb(237,220,12)" stroke-width="1" opacity="0.9254901960784314" d="M 307.5 294 L 310 294.5 L 307.5 295 L 307.5 294 Z " /><path fill="rgb(237,220,12)" stroke="rgb(237,220,12)" stroke-width="1" opacity="0.9254901960784314" d="M 298.5 295 L 301 295.5 L 298.5 296 L 298.5 295 Z " /><path fill="rgb(237,220,12)" stroke="rgb(237,220,12)" stroke-width="1" opacity="0.9254901960784314" d="M 433.5 309 L 432.5 311 L 433.5 309 Z " /><path fill="rgb(237,220,12)" stroke="rgb(237,220,12)" stroke-width="1" opacity="0.9254901960784314" d="M 429.5 316 L 428.5 318 L 429.5 316 Z " /><path fill="rgb(237,220,12)" stroke="rgb(237,220,12)" stroke-width="1" opacity="0.9254901960784314" d="M 170.5 318 L 171.5 320 L 170.5 318 Z " /><path fill="rgb(237,220,12)" stroke="rgb(237,220,12)" stroke-width="1" opacity="0.9254901960784314" d="M 426.5 321 L 425.5 323 L 426.5 321 Z " /><path fill="rgb(237,220,12)" stroke="rgb(237,220,12)" stroke-width="1" opacity="0.9254901960784314" d="M 175.5 326 L 176.5 328 L 175.5 326 Z " /><path fill="rgb(237,220,12)" stroke="rgb(237,220,12)" stroke-width="1" opacity="0.9254901960784314" d="M 177.5 329 L 178.5 331 L 177.5 329 Z " /><path fill="rgb(237,220,12)" stroke="rgb(237,220,12)" stroke-width="1" opacity="0.9254901960784314" d="M 179.5 332 L 180.5 334 L 179.5 332 Z " /><path fill="rgb(237,220,12)" stroke="rgb(237,220,12)" stroke-width="1" opacity="0.9254901960784314" d="M 418.5 333 L 417.5 335 L 418.5 333 Z " /><path fill="rgb(237,220,12)" stroke="rgb(237,220,12)" stroke-width="1" opacity="0.9254901960784314" d="M 182.5 336 L 183.5 338 L 182.5 336 Z " /><path fill="rgb(237,220,12)" stroke="rgb(237,220,12)" stroke-width="1" opacity="0.9254901960784314" d="M 416.5 336 L 415.5 338 L 416.5 336 Z " /><path fill="rgb(237,220,12)" stroke="rgb(237,220,12)" stroke-width="1" opacity="0.9254901960784314" d="M 184.5 339 L 185.5 341 L 184.5 339 Z " /><path fill="rgb(237,220,12)" stroke="rgb(237,220,12)" stroke-width="1" opacity="0.9254901960784314" d="M 413.5 340 L 412.5 342 L 413.5 340 Z " /><path fill="rgb(237,220,12)" stroke="rgb(237,220,12)" stroke-width="1" opacity="0.9254901960784314" d="M 187.5 343 L 188.5 345 L 187.5 343 Z " /><path fill="rgb(237,220,12)" stroke="rgb(237,220,12)" stroke-width="1" opacity="0.9254901960784314" d="M 410.5 344 L 409.5 346 L 410.5 344 Z " /><path fill="rgb(237,220,12)" stroke="rgb(237,220,12)" stroke-width="1" opacity="0.9254901960784314" d="M 191.5 348 L 192.5 350 L 191.5 348 Z " /><path fill="rgb(237,220,12)" stroke="rgb(237,220,12)" stroke-width="1" opacity="0.9254901960784314" d="M 407.5 348 L 405.5 351 L 407.5 348 Z " /><path fill="rgb(237,220,12)" stroke="rgb(237,220,12)" stroke-width="1" opacity="0.9254901960784314" d="M 194.5 352 L 196.5 355 L 194.5 352 Z " /><path fill="rgb(237,220,12)" stroke="rgb(237,220,12)" stroke-width="1" opacity="0.9254901960784314" d="M 403.5 353 L 401.5 356 L 403.5 353 Z " /><path fill="rgb(237,220,12)" stroke="rgb(237,220,12)" stroke-width="1" opacity="0.9254901960784314" d="M 199.5 358 L 202.5 362 L 199.5 358 Z " /><path fill="rgb(237,220,12)" stroke="rgb(237,220,12)" stroke-width="1" opacity="0.9254901960784314" d="M 398.5 359 L 396.5 362 L 398.5 359 Z " /><path fill="rgb(237,220,12)" stroke="rgb(237,220,12)" stroke-width="1" opacity="0.9254901960784314" d="M 205.5 365 L 208.5 369 L 205.5 365 Z " /><path fill="rgb(237,220,12)" stroke="rgb(237,220,12)" stroke-width="1" opacity="0.9254901960784314" d="M 392.5 366 L 388.5 371 L 392.5 366 Z " /><path fill="rgb(237,220,12)" stroke="rgb(237,220,12)" stroke-width="1" opacity="0.9254901960784314" d="M 212.5 373 L 215.5 377 L 212.5 373 Z " /><path fill="rgb(237,220,12)" stroke="rgb(237,220,12)" stroke-width="1" opacity="0.9254901960784314" d="M 385.5 374 L 382.5 378 L 385.5 374 Z " /><path fill="rgb(237,220,12)" stroke="rgb(237,220,12)" stroke-width="1" opacity="0.9254901960784314" d="M 218.5 380 L 220.5 383 L 218.5 380 Z " /><path fill="rgb(237,220,12)" stroke="rgb(237,220,12)" stroke-width="1" opacity="0.9254901960784314" d="M 379.5 381 L 377.5 384 L 379.5 381 Z " /><path fill="rgb(237,220,12)" stroke="rgb(237,220,12)" stroke-width="1" opacity="0.9254901960784314" d="M 222.5 385 L 224.5 388 L 222.5 385 Z " /><path fill="rgb(237,220,12)" stroke="rgb(237,220,12)" stroke-width="1" opacity="0.9254901960784314" d="M 375.5 386 L 374.5 388 L 375.5 386 Z " /><path fill="rgb(237,220,12)" stroke="rgb(237,220,12)" stroke-width="1" opacity="0.9254901960784314" d="M 226.5 390 L 227.5 392 L 226.5 390 Z " /><path fill="rgb(237,220,12)" stroke="rgb(237,220,12)" stroke-width="1" opacity="0.9254901960784314" d="M 372.5 390 L 371.5 392 L 372.5 390 Z " /><path fill="rgb(237,220,12)" stroke="rgb(237,220,12)" stroke-width="1" opacity="0.9254901960784314" d="M 229.5 394 L 230.5 396 L 229.5 394 Z " /><path fill="rgb(237,220,12)" stroke="rgb(237,220,12)" stroke-width="1" opacity="0.9254901960784314" d="M 369.5 394 L 368.5 396 L 369.5 394 Z " /><path fill="rgb(237,220,12)" stroke="rgb(237,220,12)" stroke-width="1" opacity="0.9254901960784314" d="M 231.5 397 L 232.5 399 L 231.5 397 Z " /><path fill="rgb(237,220,12)" stroke="rgb(237,220,12)" stroke-width="1" opacity="0.9254901960784314" d="M 366.5 398 L 365.5 400 L 366.5 398 Z " /><path fill="rgb(237,220,12)" stroke="rgb(237,220,12)" stroke-width="1" opacity="0.9254901960784314" d="M 234.5 401 L 235.5 403 L 234.5 401 Z " /><path fill="rgb(237,220,12)" stroke="rgb(237,220,12)" stroke-width="1" opacity="0.9254901960784314" d="M 364.5 401 L 363.5 403 L 364.5 401 Z " /><path fill="rgb(237,220,12)" stroke="rgb(237,220,12)" stroke-width="1" opacity="0.9254901960784314" d="M 236.5 404 L 237.5 406 L 236.5 404 Z " /><path fill="rgb(237,220,12)" stroke="rgb(237,220,12)" stroke-width="1" opacity="0.9254901960784314" d="M 362.5 404 L 361.5 406 L 362.5 404 Z " /><path fill="rgb(237,220,12)" stroke="rgb(237,220,12)" stroke-width="1" opacity="0.9254901960784314" d="M 238.5 407 L 239.5 409 L 238.5 407 Z " /><path fill="rgb(237,220,12)" stroke="rgb(237,220,12)" stroke-width="1" opacity="0.9254901960784314" d="M 240.5 410 L 241.5 412 L 240.5 410 Z " /><path fill="rgb(237,220,12)" stroke="rgb(237,220,12)" stroke-width="1" opacity="0.9254901960784314" d="M 358.5 410 L 357.5 412 L 358.5 410 Z " /><path fill="rgb(237,220,12)" stroke="rgb(237,220,12)" stroke-width="1" opacity="0.9254901960784314" d="M 356.5 413 L 355.5 415 L 356.5 413 Z " /><path fill="rgb(237,220,12)" stroke="rgb(237,220,12)" stroke-width="1" opacity="0.9254901960784314" d="M 245.5 418 L 246.5 420 L 245.5 418 Z " /><path fill="rgb(237,220,12)" stroke="rgb(237,220,12)" stroke-width="1" opacity="0.9254901960784314" d="M 340.5 441 L 339.5 443 L 340.5 441 Z " /><path fill="rgb(237,220,12)" stroke="rgb(237,220,12)" stroke-width="1" opacity="0.9254901960784314" d="M 311.5 509 L 312 510.5 L 310 511.5 L 311.5 509 Z " /><path fill="rgb(237,220,12)" stroke="rgb(237,220,12)" stroke-width="1" opacity="0.9254901960784314" d="M 289.5 513 L 291.5 516 L 289.5 513 Z " /><path fill="rgb(237,220,12)" stroke="rgb(237,220,12)" stroke-width="1" opacity="0.9254901960784314" d="M 309.5 513 L 308.5 515 L 309.5 513 Z " /><path fill="rgb(237,220,12)" stroke="rgb(237,220,12)" stroke-width="1" opacity="0.9254901960784314" d="M 295.5 517 L 298 517.5 L 295.5 518 L 295.5 517 Z " /><path fill="rgb(237,220,12)" stroke="rgb(237,220,12)" stroke-width="1" opacity="0.9254901960784314" d="M 301.5 517 L 304 517.5 L 301.5 518 L 301.5 517 Z " /><path fill="rgb(0,1,2)" stroke="rgb(0,1,2)" stroke-width="1" opacity="0.00784313725490196" d="M 0 0 L 38 0.5 Q 19.6 4.6 10 17.5 L 2 31.5 L 0.5 38 L 0 0 Z " /><path fill="rgb(0,1,2)" stroke="rgb(0,1,2)" stroke-width="1" opacity="0.00784313725490196" d="M 562.5 0 L 600 0 L 600 37.5 L 599 37.5 Q 595.3 19.3 582.5 10 L 568.5 2 L 562.5 1 L 562.5 0 Z " /><path fill="rgb(0,1,2)" stroke="rgb(0,1,2)" stroke-width="1" opacity="0.00784313725490196" d="M 0.5 562 Q 4.6 580.4 17.5 590 L 31.5 598 L 38 599.5 L 0 600 L 0.5 562 Z " /><path fill="rgb(0,1,2)" stroke="rgb(0,1,2)" stroke-width="1" opacity="0.00784313725490196" d="M 599.5 562 L 600 600 L 562 599.5 Q 580.4 595.4 590 582.5 L 598 568.5 L 599.5 562 Z " /><path fill="rgb(0,124,254)" stroke="rgb(0,124,254)" stroke-width="1" opacity="1" d="M 295.5 93 L 316.5 94 L 317.5 95 L 329.5 96 L 358.5 105 Q 392.6 119.9 415 146.5 Q 428.7 162.3 438 182.5 L 447 208.5 L 450 227.5 L 450 229.5 L 451 233.5 L 451 254.5 L 447 276.5 L 434 308.5 L 415 338.5 L 377 383.5 L 355 414.5 L 334 452.5 L 319 487.5 L 313 506.5 L 306.5 516 L 298.5 518 Q 291.1 516.9 288 511.5 Q 272.2 460.8 247 419.5 L 225 387.5 L 186 341.5 L 167 312.5 L 154 283.5 L 149 263.5 L 148 248.5 L 148 246.5 L 148 231.5 L 149 230.5 L 150 217.5 Q 153.5 199.5 160 184.5 Q 175.5 150.5 202.5 128 Q 221 112.5 245.5 103 L 269.5 96 L 281.5 95 L 282.5 94 L 294.5 94 L 295.5 93 Z M 296 95 L 295 96 L 281 96 L 274 98 L 269 98 L 248 104 Q 221 114 202 131 Q 182 148 169 171 Q 160 185 155 204 L 150 233 L 150 257 L 153 274 Q 159 295 169 313 L 188 342 L 227 388 L 247 417 Q 273 459 290 512 L 298 516 Q 304 517 307 514 L 310 510 L 313 499 L 327 464 L 350 420 L 368 393 L 416 335 L 430 313 L 443 284 L 449 257 L 449 232 L 448 231 L 445 208 L 441 195 Q 431 166 412 146 Q 392 123 364 109 L 346 102 L 331 98 L 320 97 L 319 96 L 296 95 Z " /><path fill="rgb(0,124,254)" stroke="rgb(0,124,254)" stroke-width="1" opacity="1" d="M 290.5 193 Q 308.1 190.9 318.5 196 Q 330.2 200.8 338 209.5 Q 352.3 222.7 352 250.5 Q 348 272 334.5 284 Q 325.7 292.2 312.5 296 Q 303.8 298.8 290.5 297 Q 271 292.5 260 279.5 Q 252.9 271.6 249 260.5 L 247 252.5 L 247 237.5 Q 251.4 216.4 265.5 205 Q 275.3 196.3 290.5 193 Z M 299 194 L 283 197 L 270 204 Q 254 215 249 238 L 249 253 L 250 258 L 258 275 L 276 290 L 286 294 L 298 295 L 299 296 L 314 294 L 330 286 L 344 270 L 348 261 L 351 248 L 350 247 L 350 239 L 348 230 L 340 215 Q 331 203 317 197 L 310 195 L 299 194 Z " /><path fill="rgb(250,225,0)" stroke="rgb(250,225,0)" stroke-width="1" opacity="1" d="M 38.5 0 L 561.5 0 Q 580 4.5 590 17.5 Q 597.2 25.8 600 38.5 L 600 561.5 Q 595.5 580 582.5 590 Q 574.2 597.2 561.5 600 L 38.5 600 Q 20 595.5 10 582.5 Q 2.8 574.2 0 561.5 L 0 38.5 Q 4.5 20 17.5 10 Q 25.8 2.8 38.5 0 Z M 287 93 L 286 94 L 279 94 L 263 97 L 235 107 Q 214 117 199 131 Q 174 153 159 186 L 150 215 L 149 226 L 148 227 L 148 238 L 147 239 L 148 261 L 152 279 Q 157 297 166 312 L 187 344 L 226 390 L 244 416 L 269 463 L 282 495 L 286 509 L 289 514 L 296 518 Q 305 520 309 515 L 312 511 L 321 484 L 334 454 L 353 419 L 376 386 L 417 337 L 434 310 Q 443 294 448 275 L 451 260 L 451 248 L 452 247 L 450 221 L 443 194 Q 432 165 413 144 Q 389 116 353 102 L 337 97 L 321 94 Q 314 96 313 93 L 287 93 Z " /><path fill="rgb(250,225,0)" stroke="rgb(250,225,0)" stroke-width="1" opacity="1" d="M 293.5 195 L 305.5 195 L 317.5 198 Q 329.8 203.2 338 212.5 Q 344.8 220.2 348 231.5 L 349 235.5 L 349 254.5 Q 344.9 272.9 332.5 283 Q 323.9 290.4 311.5 294 L 292.5 295 Q 271.1 290.9 260 276.5 Q 249.9 264.6 249 243.5 L 253 225.5 Q 258 213.5 267.5 206 L 281.5 198 L 293.5 195 Z " /><path fill="rgb(0,125,255)" stroke="rgb(0,125,255)" stroke-width="1" opacity="1" d="M 295.5 95 L 318.5 96 L 319.5 97 L 330.5 98 L 345.5 102 L 363.5 109 Q 392.2 122.8 412 145.5 Q 430.6 165.9 441 194.5 L 445 207.5 L 448 230.5 L 449 231.5 L 449 256.5 L 443 283.5 L 430 312.5 L 416 334.5 L 368 392.5 L 350 419.5 L 327 463.5 L 313 498.5 L 310 509.5 L 306.5 514 Q 303.6 516.6 297.5 516 L 290 511.5 Q 273.4 459.1 247 416.5 L 227 387.5 L 188 341.5 L 169 312.5 Q 158.9 295.1 153 273.5 L 150 256.5 L 150 232.5 L 155 203.5 Q 160.3 185.3 169 170.5 Q 182.1 147.6 201.5 131 Q 220.9 113.9 247.5 104 L 268.5 98 L 273.5 98 L 280.5 96 L 294.5 96 L 295.5 95 Z M 291 193 Q 275 196 266 205 Q 251 216 247 238 L 247 253 L 249 261 Q 253 272 260 280 Q 271 292 291 297 Q 304 299 313 296 Q 326 292 335 284 Q 348 272 352 251 Q 352 223 338 210 Q 330 201 319 196 Q 308 191 291 193 Z " /></svg>