<svg width="1025" height="1025" version="1.1" xmlns="http://www.w3.org/2000/svg" desc="Created with imagetracer.js version 1.2.6" ><path fill="rgb(1,242,91)" stroke="rgb(1,242,91)" stroke-width="1" opacity="1" d="M 363.5 109 L 398.5 109 L 399.5 110 L 409.5 110 L 410.5 111 L 424.5 112 L 455.5 119 L 481.5 128 Q 542.6 153.9 583 200.5 L 579.5 198 L 181 197.5 Q 217.5 156.5 270.5 132 Q 293.8 121.3 321.5 115 L 343.5 111 L 362.5 110 L 363.5 109 Z " /><path fill="rgb(1,242,91)" stroke="rgb(1,242,91)" stroke-width="1" opacity="1" d="M 178.5 201 L 175.5 205 L 178.5 201 Z " /><path fill="rgb(1,242,91)" stroke="rgb(1,242,91)" stroke-width="1" opacity="1" d="M 584.5 203 L 588 207.5 L 587 207.5 L 584.5 203 Z " /><path fill="rgb(1,242,91)" stroke="rgb(1,242,91)" stroke-width="1" opacity="1" d="M 173.5 207 L 171.5 210 L 173.5 207 Z " /><path fill="rgb(1,242,91)" stroke="rgb(1,242,91)" stroke-width="1" opacity="1" d="M 589.5 209 L 590.5 211 L 589.5 209 Z " /><path fill="rgb(1,242,91)" stroke="rgb(1,242,91)" stroke-width="1" opacity="1" d="M 169.5 212 L 167.5 215 L 169.5 212 Z " /><path fill="rgb(1,242,91)" stroke="rgb(1,242,91)" stroke-width="1" opacity="1" d="M 593.5 214 L 594.5 216 L 593.5 214 Z " /><path fill="rgb(1,242,91)" stroke="rgb(1,242,91)" stroke-width="1" opacity="1" d="M 166.5 216 L 164.5 219 L 166.5 216 Z " /><path fill="rgb(1,242,91)" stroke="rgb(1,242,91)" stroke-width="1" opacity="1" d="M 163.5 220 L 162.5 222 L 163.5 220 Z " /><path fill="rgb(1,242,91)" stroke="rgb(1,242,91)" stroke-width="1" opacity="1" d="M 603.5 228 L 604.5 230 L 603.5 228 Z " /><path fill="rgb(1,242,91)" stroke="rgb(1,242,91)" stroke-width="1" opacity="1" d="M 147.5 245 L 146.5 247 L 147.5 245 Z " /><path fill="rgb(1,242,91)" stroke="rgb(1,242,91)" stroke-width="1" opacity="1" d="M 345.5 283 L 346.5 285 L 345.5 283 Z " /><path fill="rgb(0,235,80)" stroke="rgb(0,235,80)" stroke-width="1" opacity="1" d="M 181.5 198 L 579.5 198 L 584 202.5 L 587 208 Q 589.7 206.9 589 209.5 Q 610.5 234.5 625 266.5 L 638 301.5 L 640 312 L 484.5 312 L 484 310.5 L 483 305 L 481 305 L 481 300 Q 478.3 301.1 479 298.5 L 478 293 Q 473.9 294.7 475 290.5 L 474 286 L 472 286 L 471.5 283 L 413 283 Q 414.3 287.1 411 286 L 411 289.5 L 410 293 Q 405.1 291.2 407 297.5 L 406 300 L 404 300 Q 405.5 306.3 402 305.5 L 402 309.5 L 401 312 L 380.5 312 L 377 310 L 373.5 305 L 370 303.5 L 367.5 300 L 362 298 L 360 293 Q 355.4 294.3 354 291.5 L 352 288.5 L 345.5 283 L 289 283 Q 290 287.3 287 286.5 L 287 293 L 284 293 L 284 297.5 L 283 300 L 281 300 L 281 305 L 278 305 L 278 309.5 L 277 312 L 121.5 312 L 121 310.5 Q 139.7 242.7 181.5 198 Z " /><path fill="rgb(0,235,80)" stroke="rgb(0,235,80)" stroke-width="1" opacity="1" d="M 638.5 346 L 639.5 348 L 638.5 346 Z " /><path fill="rgb(0,235,80)" stroke="rgb(0,235,80)" stroke-width="1" opacity="1" d="M 643.5 347 L 644.5 349 L 643.5 347 Z " /><path fill="rgb(0,235,80)" stroke="rgb(0,235,80)" stroke-width="1" opacity="1" d="M 643.5 373 Q 649.4 371.3 648 375 L 638 374.5 L 643.5 373 Z " /><path fill="rgb(0,235,80)" stroke="rgb(0,235,80)" stroke-width="1" opacity="1" d="M 645.5 377 L 648 377.5 L 648 396.5 L 647 397.5 L 647 407.5 L 646 408.5 L 644 427.5 L 638 452.5 L 623 492 L 609.5 489 L 592.5 489 L 591.5 490 L 580.5 491 L 572.5 494 L 556 494.5 L 560 495.5 L 533.5 508 L 492.5 536 Q 461.7 560.7 435 589.5 Q 365.2 663.7 319.5 762 L 315 753.5 Q 374.4 632.4 468.5 546 Q 499 517 537 495.5 L 534 494.5 L 545 488.5 L 542 487.5 L 550 483.5 L 547 482.5 L 559 476.5 L 556 475.5 L 560 473.5 L 554 472.5 L 560 469.5 L 557 468.5 L 566 464.5 L 562 463.5 L 565 462.5 L 561 461.5 L 580 453.5 L 566.5 453 L 565.5 452 L 562.5 453 L 562.5 452 L 566 450.5 L 563 449.5 L 571 445.5 L 568 444.5 L 572 442.5 L 566 441.5 L 572 438.5 L 569 437.5 L 580 432.5 L 577 431.5 L 591 425.5 L 578 424.5 L 589 419.5 L 586 418.5 L 598 413.5 L 590 411.5 L 615 402.5 L 601.5 402 L 600.5 401 L 595.5 402 L 593.5 401 L 591.5 402 L 589.5 402 L 586 401.5 L 591 399.5 L 588 398.5 L 597 395 L 596.5 393 L 593.5 394 L 593.5 393 L 597.5 391 L 599.5 391 L 606.5 391 L 615 387.5 L 610 386.5 L 623.5 382 L 638.5 382 L 645 380.5 L 634 379.5 L 645.5 377 Z M 604 482 L 604 483 L 606 483 L 604 482 Z M 593 486 Q 591 488 587 487 L 587 488 L 618 488 L 613 486 L 593 486 Z " /><path fill="rgb(251,253,255)" stroke="rgb(251,253,255)" stroke-width="1" opacity="0.9921568627450981" d="M 1024.5 216 L 1025 674.5 L 1024 674.5 L 1024 466 L 634.5 466 L 635 464.5 L 645 426.5 L 649 388 L 1024 388 L 1024.5 216 Z " /><path fill="rgb(251,253,255)" stroke="rgb(251,253,255)" stroke-width="1" opacity="0.9921568627450981" d="M 326 284 L 345.5 284 L 346 285.5 L 371 320.5 L 371 398.5 L 369 397.5 L 348.5 368 L 348 465 L 326.5 465 L 326 464.5 L 326 284 Z " /><path fill="rgb(251,253,255)" stroke="rgb(251,253,255)" stroke-width="1" opacity="0.9921568627450981" d="M 1 388 L 112.5 388 L 113 388.5 L 113 401.5 L 114 402.5 L 114 411.5 L 119 439.5 L 127 466 L 1 466 L 1 388 Z " /><path fill="rgb(253,254,255)" stroke="rgb(253,254,255)" stroke-width="1" opacity="0.996078431372549" d="M 206.5 0 L 210.5 1 L 211.5 0 L 806.5 0 L 808.5 0 L 823.5 1 L 824.5 2 L 826.5 1 L 828.5 2 L 832.5 2 L 839.5 4 L 841.5 4 L 851.5 6 L 853 5.5 Q 852.1 8.5 856.5 7 L 874.5 13 Q 876 10.5 877.5 14 L 879.5 13 L 880 15 Q 888.7 15.7 894.5 21 L 896.5 20 L 899 21 Q 897.9 23.7 900.5 23 L 909 26 L 910.5 29 L 914.5 31 L 916 30.5 Q 915.3 32.8 917.5 32 Q 919.2 35.1 921 33.5 L 920.5 35 L 922.5 36 L 924 35.5 Q 923.3 37.8 925.5 37 Q 927.8 41.3 930 39.5 L 931.5 42 L 933 41.5 L 932.5 43 L 935.5 45 L 937 44.5 L 936.5 46 L 940.5 49 L 942 48.5 L 944.5 52 L 947 52.5 L 946.5 54 L 953.5 60 L 955.5 60 L 965 69.5 L 964 70.5 L 971 77.5 L 971.5 79 L 973 78.5 L 976.5 85 L 978 84.5 Q 975.5 86 979 87.5 L 979.5 89 L 981 88.5 Q 978.5 90 982 91.5 L 982.5 93 L 984 92.5 Q 981.7 93.8 984.5 95 L 986 95.5 L 985 96.5 L 988 99.5 L 990.5 104 L 992 104.5 L 992 106.5 L 993.5 109 L 995 109.5 Q 992.5 111 996 112.5 L 997.5 116 Q 999.8 115.3 999 117.5 L 1000 120.5 L 1003 128 Q 1006.7 126.7 1005 132.5 Q 1007.8 133.6 1007 137 L 1009 137.5 L 1008 139.5 L 1011 144.5 L 1014 156.5 L 1017 160.5 L 1016 163.5 L 1018 167.5 L 1018 171.5 L 1022 185.5 L 1022 187.5 L 1023 190.5 L 1023 194.5 L 1024 201.5 L 1024 203.5 L 1025 205.5 L 1024 209.5 L 1025 214.5 L 1024 215.5 L 1024 388 L 649.5 388 L 649 387.5 L 649 360.5 L 648 359.5 L 648 348.5 L 647 347.5 L 647 340.5 L 643 317.5 L 638 298.5 L 626 266.5 Q 601.1 212.9 559.5 176 Q 523.2 142.8 472.5 124 L 450.5 117 L 421.5 111 L 405.5 110 L 404.5 109 L 374.5 108 L 373.5 109 L 347.5 110 L 346.5 111 L 339.5 111 L 323.5 114 L 300.5 120 L 271.5 131 Q 219.2 154.7 183 194.5 Q 147.9 231.9 128 284.5 L 120 310.5 L 115 335.5 L 114 350.5 L 113 351.5 L 112 385.5 L 113 388 L 0 388 L 0 214.5 L 1 209.5 L 1 207.5 L 2 192.5 L 4 186.5 L 4 184.5 L 7 171.5 L 7 169.5 L 11 155.5 L 10.5 154 Q 12.8 154.8 12 152.5 L 11.5 151 Q 13.8 151.8 13 149.5 L 12.5 148 Q 14.8 148.8 14 146.5 L 16 141.5 L 15.5 140 Q 17.8 140.8 17 138.5 L 30 112.5 L 29.5 111 L 32 109.5 L 33 107.5 L 32.5 106 Q 34.8 106.8 34 104.5 L 35 102 L 37 102 L 37 99 L 39 99 L 39 96 Q 41.7 97.1 41 94.5 Q 44.1 92.8 42.5 91 L 44 91.5 L 45 87 L 49 84.5 L 48.5 83 L 50 83.5 L 54 78.5 Q 51.8 77.3 54.5 76 L 59 72.5 Q 58.3 70.3 60.5 71 L 71 60.5 L 71 59 L 76 55.5 L 77.5 53 L 78.5 54 L 82.5 50 L 84 49.5 L 83.5 48 Q 85.3 50.7 87 46.5 Q 86.3 44.3 88.5 45 L 91 44 Q 89.8 41 93.5 42 L 99 38.5 L 98.5 37 L 100.5 37 L 102 36.5 L 101.5 35 L 103.5 35 L 110 32 L 111.5 29 Q 113 31.5 114.5 28 L 119 27 L 120.5 24 L 126.5 21 L 128.5 22 Q 130.4 18.4 135 19 L 135.5 17 L 137.5 18 L 141.5 15 L 143.5 15 Q 145.8 15.8 145 13.5 L 146.5 14 L 157 11 L 157.5 9 L 159.5 10 L 162.5 8 L 164 8.5 L 164.5 7 L 168 8 L 168.5 6 L 172 7 L 172.5 5 L 174.5 5 Q 180.2 5.7 182.5 3 L 186.5 3 L 188.5 2 L 190.5 3 L 199.5 1 L 201.5 1 L 203.5 2 L 206.5 0 Z " /><path fill="rgb(253,254,255)" stroke="rgb(253,254,255)" stroke-width="1" opacity="0.996078431372549" d="M 290 284 L 325.5 284 L 326 284.5 L 326 465 L 290.5 465 L 290 464.5 L 290 284 Z " /><path fill="rgb(0,0,0)" stroke="rgb(0,0,0)" stroke-width="1" opacity="0" d="M 0 0 L 206 0.5 L 188.5 2 L 164.5 7 Q 140.5 13.5 120.5 24 Q 80.8 44.8 53 77.5 Q 29.6 104.6 15 140.5 L 5 173.5 L 2 189.5 L 0.5 208 L 0 0 Z " /><path fill="rgb(0,0,0)" stroke="rgb(0,0,0)" stroke-width="1" opacity="0" d="M 819.5 0 L 1025 0 L 1025 204.5 L 1024 204.5 L 1024 195.5 L 1020 172.5 Q 1014.4 148.6 1005 128.5 Q 986.1 88.4 955.5 60 Q 930.2 35.8 896.5 20 L 860.5 7 L 836.5 2 L 819.5 1 L 819.5 0 Z " /><path fill="rgb(0,0,0)" stroke="rgb(0,0,0)" stroke-width="1" opacity="0" d="M 0.5 817 L 2 835.5 L 5 851.5 L 18 891.5 Q 39.3 939.2 76.5 971 Q 103.9 995.1 140.5 1010 L 177.5 1021 L 195.5 1023 L 196.5 1024 L 208 1024.5 L 0 1025 L 0.5 817 Z " /><path fill="rgb(0,0,0)" stroke="rgb(0,0,0)" stroke-width="1" opacity="0" d="M 1024.5 820 L 1025 1025 L 818 1024.5 L 828.5 1024 L 856.5 1019 L 879.5 1012 L 898.5 1004 Q 936.5 985.5 964 956.5 Q 988.7 930.7 1005 896.5 L 1018 860.5 L 1023 836.5 L 1024.5 820 Z " /><path fill="rgb(205,239,243)" stroke="rgb(205,239,243)" stroke-width="1" opacity="0.996078431372549" d="M 374.5 108 L 387 108.5 L 374.5 109 L 374.5 108 Z " /><path fill="rgb(205,239,243)" stroke="rgb(205,239,243)" stroke-width="1" opacity="0.996078431372549" d="M 356.5 109 L 363 109.5 L 356.5 110 L 356.5 109 Z " /><path fill="rgb(205,239,243)" stroke="rgb(205,239,243)" stroke-width="1" opacity="0.996078431372549" d="M 399.5 109 L 405 109.5 L 399.5 110 L 399.5 109 Z " /><path fill="rgb(205,239,243)" stroke="rgb(205,239,243)" stroke-width="1" opacity="0.996078431372549" d="M 347.5 110 L 351 110.5 L 347.5 111 L 347.5 110 Z " /><path fill="rgb(205,239,243)" stroke="rgb(205,239,243)" stroke-width="1" opacity="0.996078431372549" d="M 410.5 110 L 414 110.5 L 410.5 111 L 410.5 110 Z " /><path fill="rgb(205,239,243)" stroke="rgb(205,239,243)" stroke-width="1" opacity="0.996078431372549" d="M 340.5 111 L 343 111.5 L 340.5 112 L 340.5 111 Z " /><path fill="rgb(205,239,243)" stroke="rgb(205,239,243)" stroke-width="1" opacity="0.996078431372549" d="M 418.5 111 L 422 111.5 L 418.5 112 L 418.5 111 Z " /><path fill="rgb(205,239,243)" stroke="rgb(205,239,243)" stroke-width="1" opacity="0.996078431372549" d="M 334.5 112 L 337 112.5 L 334.5 113 L 334.5 112 Z " /><path fill="rgb(205,239,243)" stroke="rgb(205,239,243)" stroke-width="1" opacity="0.996078431372549" d="M 425.5 112 L 428 112.5 L 425.5 113 L 425.5 112 Z " /><path fill="rgb(205,239,243)" stroke="rgb(205,239,243)" stroke-width="1" opacity="0.996078431372549" d="M 328.5 113 L 331 113.5 L 328.5 114 L 328.5 113 Z " /><path fill="rgb(205,239,243)" stroke="rgb(205,239,243)" stroke-width="1" opacity="0.996078431372549" d="M 430.5 113 L 433 113.5 L 430.5 114 L 430.5 113 Z " /><path fill="rgb(205,239,243)" stroke="rgb(205,239,243)" stroke-width="1" opacity="0.996078431372549" d="M 323.5 114 L 326 114.5 L 323.5 115 L 323.5 114 Z " /><path fill="rgb(205,239,243)" stroke="rgb(205,239,243)" stroke-width="1" opacity="0.996078431372549" d="M 251.5 141 L 250.5 143 L 251.5 141 Z " /><path fill="rgb(205,239,243)" stroke="rgb(205,239,243)" stroke-width="1" opacity="0.996078431372549" d="M 513.5 143 L 514.5 145 L 513.5 143 Z " /><path fill="rgb(205,239,243)" stroke="rgb(205,239,243)" stroke-width="1" opacity="0.996078431372549" d="M 244.5 145 L 243.5 147 L 244.5 145 Z " /><path fill="rgb(205,239,243)" stroke="rgb(205,239,243)" stroke-width="1" opacity="0.996078431372549" d="M 518.5 146 L 519.5 148 L 518.5 146 Z " /><path fill="rgb(205,239,243)" stroke="rgb(205,239,243)" stroke-width="1" opacity="0.996078431372549" d="M 239.5 148 L 238.5 150 L 239.5 148 Z " /><path fill="rgb(205,239,243)" stroke="rgb(205,239,243)" stroke-width="1" opacity="0.996078431372549" d="M 523.5 149 L 524.5 151 L 523.5 149 Z " /><path fill="rgb(205,239,243)" stroke="rgb(205,239,243)" stroke-width="1" opacity="0.996078431372549" d="M 236.5 150 L 235.5 152 L 236.5 150 Z " /><path fill="rgb(205,239,243)" stroke="rgb(205,239,243)" stroke-width="1" opacity="0.996078431372549" d="M 526.5 151 L 527.5 153 L 526.5 151 Z " /><path fill="rgb(205,239,243)" stroke="rgb(205,239,243)" stroke-width="1" opacity="0.996078431372549" d="M 233.5 152 L 232.5 154 L 233.5 152 Z " /><path fill="rgb(205,239,243)" stroke="rgb(205,239,243)" stroke-width="1" opacity="0.996078431372549" d="M 529.5 153 L 530.5 155 L 529.5 153 Z " /><path fill="rgb(205,239,243)" stroke="rgb(205,239,243)" stroke-width="1" opacity="0.996078431372549" d="M 230.5 154 L 229.5 156 L 230.5 154 Z " /><path fill="rgb(205,239,243)" stroke="rgb(205,239,243)" stroke-width="1" opacity="0.996078431372549" d="M 532.5 155 L 533.5 157 L 532.5 155 Z " /><path fill="rgb(205,239,243)" stroke="rgb(205,239,243)" stroke-width="1" opacity="0.996078431372549" d="M 227.5 156 L 226.5 158 L 227.5 156 Z " /><path fill="rgb(205,239,243)" stroke="rgb(205,239,243)" stroke-width="1" opacity="0.996078431372549" d="M 224.5 158 L 223.5 160 L 224.5 158 Z " /><path fill="rgb(205,239,243)" stroke="rgb(205,239,243)" stroke-width="1" opacity="0.996078431372549" d="M 536.5 158 L 537.5 160 L 536.5 158 Z " /><path fill="rgb(205,239,243)" stroke="rgb(205,239,243)" stroke-width="1" opacity="0.996078431372549" d="M 539.5 160 L 540.5 162 L 539.5 160 Z " /><path fill="rgb(205,239,243)" stroke="rgb(205,239,243)" stroke-width="1" opacity="0.996078431372549" d="M 220.5 161 L 219.5 163 L 220.5 161 Z " /><path fill="rgb(205,239,243)" stroke="rgb(205,239,243)" stroke-width="1" opacity="0.996078431372549" d="M 543.5 163 L 544.5 165 L 543.5 163 Z " /><path fill="rgb(205,239,243)" stroke="rgb(205,239,243)" stroke-width="1" opacity="0.996078431372549" d="M 216.5 164 L 214.5 167 L 216.5 164 Z " /><path fill="rgb(205,239,243)" stroke="rgb(205,239,243)" stroke-width="1" opacity="0.996078431372549" d="M 548.5 167 L 549.5 169 L 548.5 167 Z " /><path fill="rgb(205,239,243)" stroke="rgb(205,239,243)" stroke-width="1" opacity="0.996078431372549" d="M 211.5 168 L 209.5 171 L 211.5 168 Z " /><path fill="rgb(205,239,243)" stroke="rgb(205,239,243)" stroke-width="1" opacity="0.996078431372549" d="M 553.5 171 L 556.5 175 L 553.5 171 Z " /><path fill="rgb(205,239,243)" stroke="rgb(205,239,243)" stroke-width="1" opacity="0.996078431372549" d="M 205.5 173 L 202.5 177 L 205.5 173 Z " /><path fill="rgb(205,239,243)" stroke="rgb(205,239,243)" stroke-width="1" opacity="0.996078431372549" d="M 561.5 178 L 578.5 196 L 561.5 178 Z " /><path fill="rgb(205,239,243)" stroke="rgb(205,239,243)" stroke-width="1" opacity="0.996078431372549" d="M 194.5 183 L 187.5 191 L 194.5 183 Z " /><path fill="rgb(205,239,243)" stroke="rgb(205,239,243)" stroke-width="1" opacity="0.996078431372549" d="M 180.5 198 L 177.5 202 L 180.5 198 Z " /><path fill="rgb(205,239,243)" stroke="rgb(205,239,243)" stroke-width="1" opacity="0.996078431372549" d="M 583.5 201 L 585.5 204 L 583.5 201 Z " /><path fill="rgb(205,239,243)" stroke="rgb(205,239,243)" stroke-width="1" opacity="0.996078431372549" d="M 174.5 205 L 172.5 208 L 174.5 205 Z " /><path fill="rgb(205,239,243)" stroke="rgb(205,239,243)" stroke-width="1" opacity="0.996078431372549" d="M 588.5 207 L 590.5 210 L 588.5 207 Z " /><path fill="rgb(205,239,243)" stroke="rgb(205,239,243)" stroke-width="1" opacity="0.996078431372549" d="M 170.5 210 L 168.5 213 L 170.5 210 Z " /><path fill="rgb(205,239,243)" stroke="rgb(205,239,243)" stroke-width="1" opacity="0.996078431372549" d="M 592.5 212 L 593.5 214 L 592.5 212 Z " /><path fill="rgb(205,239,243)" stroke="rgb(205,239,243)" stroke-width="1" opacity="0.996078431372549" d="M 166.5 215 L 165.5 217 L 166.5 215 Z " /><path fill="rgb(205,239,243)" stroke="rgb(205,239,243)" stroke-width="1" opacity="0.996078431372549" d="M 595.5 216 L 596.5 218 L 595.5 216 Z " /><path fill="rgb(205,239,243)" stroke="rgb(205,239,243)" stroke-width="1" opacity="0.996078431372549" d="M 163.5 219 L 162.5 221 L 163.5 219 Z " /><path fill="rgb(205,239,243)" stroke="rgb(205,239,243)" stroke-width="1" opacity="0.996078431372549" d="M 598.5 220 L 599.5 222 L 598.5 220 Z " /><path fill="rgb(205,239,243)" stroke="rgb(205,239,243)" stroke-width="1" opacity="0.996078431372549" d="M 161.5 222 L 160.5 224 L 161.5 222 Z " /><path fill="rgb(205,239,243)" stroke="rgb(205,239,243)" stroke-width="1" opacity="0.996078431372549" d="M 600.5 223 L 601.5 225 L 600.5 223 Z " /><path fill="rgb(205,239,243)" stroke="rgb(205,239,243)" stroke-width="1" opacity="0.996078431372549" d="M 159.5 225 L 158.5 227 L 159.5 225 Z " /><path fill="rgb(205,239,243)" stroke="rgb(205,239,243)" stroke-width="1" opacity="0.996078431372549" d="M 602.5 226 L 603.5 228 L 602.5 226 Z " /><path fill="rgb(205,239,243)" stroke="rgb(205,239,243)" stroke-width="1" opacity="0.996078431372549" d="M 157.5 228 L 156.5 230 L 157.5 228 Z " /><path fill="rgb(205,239,243)" stroke="rgb(205,239,243)" stroke-width="1" opacity="0.996078431372549" d="M 155.5 231 L 154.5 233 L 155.5 231 Z " /><path fill="rgb(205,239,243)" stroke="rgb(205,239,243)" stroke-width="1" opacity="0.996078431372549" d="M 606.5 232 L 607.5 234 L 606.5 232 Z " /><path fill="rgb(205,239,243)" stroke="rgb(205,239,243)" stroke-width="1" opacity="0.996078431372549" d="M 153.5 234 L 152.5 236 L 153.5 234 Z " /><path fill="rgb(205,239,243)" stroke="rgb(205,239,243)" stroke-width="1" opacity="0.996078431372549" d="M 608.5 235 L 609.5 237 L 608.5 235 Z " /><path fill="rgb(205,239,243)" stroke="rgb(205,239,243)" stroke-width="1" opacity="0.996078431372549" d="M 150.5 239 L 149.5 241 L 150.5 239 Z " /><path fill="rgb(205,239,243)" stroke="rgb(205,239,243)" stroke-width="1" opacity="0.996078431372549" d="M 611.5 240 L 612.5 242 L 611.5 240 Z " /><path fill="rgb(205,239,243)" stroke="rgb(205,239,243)" stroke-width="1" opacity="0.996078431372549" d="M 290.5 283 L 345 283.5 L 290 284 L 289.5 465 L 289 284.5 L 290.5 283 Z " /><path fill="rgb(205,239,243)" stroke="rgb(205,239,243)" stroke-width="1" opacity="0.996078431372549" d="M 413.5 283 L 472 283.5 L 413.5 284 L 413.5 283 Z " /><path fill="rgb(205,239,243)" stroke="rgb(205,239,243)" stroke-width="1" opacity="0.996078431372549" d="M 349.5 289 L 350.5 291 L 349.5 289 Z " /><path fill="rgb(205,239,243)" stroke="rgb(205,239,243)" stroke-width="1" opacity="0.996078431372549" d="M 351.5 292 L 352.5 294 L 351.5 292 Z " /><path fill="rgb(205,239,243)" stroke="rgb(205,239,243)" stroke-width="1" opacity="0.996078431372549" d="M 356.5 299 L 357.5 301 L 356.5 299 Z " /><path fill="rgb(205,239,243)" stroke="rgb(205,239,243)" stroke-width="1" opacity="0.996078431372549" d="M 358.5 302 L 359.5 304 L 358.5 302 Z " /><path fill="rgb(205,239,243)" stroke="rgb(205,239,243)" stroke-width="1" opacity="0.996078431372549" d="M 363.5 309 L 364.5 311 L 363.5 309 Z " /><path fill="rgb(205,239,243)" stroke="rgb(205,239,243)" stroke-width="1" opacity="0.996078431372549" d="M 365.5 312 L 366.5 314 L 365.5 312 Z " /><path fill="rgb(205,239,243)" stroke="rgb(205,239,243)" stroke-width="1" opacity="0.996078431372549" d="M 367.5 315 L 368.5 317 L 367.5 315 Z " /><path fill="rgb(205,239,243)" stroke="rgb(205,239,243)" stroke-width="1" opacity="0.996078431372549" d="M 372.5 322 L 373.5 324 L 372.5 322 Z " /><path fill="rgb(205,239,243)" stroke="rgb(205,239,243)" stroke-width="1" opacity="0.996078431372549" d="M 643.5 322 L 644 324.5 L 643 324.5 L 643.5 322 Z " /><path fill="rgb(205,239,243)" stroke="rgb(205,239,243)" stroke-width="1" opacity="0.996078431372549" d="M 374.5 325 L 375.5 327 L 374.5 325 Z " /><path fill="rgb(205,239,243)" stroke="rgb(205,239,243)" stroke-width="1" opacity="0.996078431372549" d="M 644.5 327 L 645 329.5 L 644 329.5 L 644.5 327 Z " /><path fill="rgb(205,239,243)" stroke="rgb(205,239,243)" stroke-width="1" opacity="0.996078431372549" d="M 116.5 329 L 117 331.5 L 116 331.5 L 116.5 329 Z " /><path fill="rgb(205,239,243)" stroke="rgb(205,239,243)" stroke-width="1" opacity="0.996078431372549" d="M 379.5 332 L 380.5 334 L 379.5 332 Z " /><path fill="rgb(205,239,243)" stroke="rgb(205,239,243)" stroke-width="1" opacity="0.996078431372549" d="M 645.5 333 L 646 335.5 L 645 335.5 L 645.5 333 Z " /><path fill="rgb(205,239,243)" stroke="rgb(205,239,243)" stroke-width="1" opacity="0.996078431372549" d="M 115.5 335 L 116 338.5 L 115 338.5 L 115.5 335 Z " /><path fill="rgb(205,239,243)" stroke="rgb(205,239,243)" stroke-width="1" opacity="0.996078431372549" d="M 381.5 335 L 382.5 337 L 381.5 335 Z " /><path fill="rgb(205,239,243)" stroke="rgb(205,239,243)" stroke-width="1" opacity="0.996078431372549" d="M 383.5 338 L 384.5 340 L 383.5 338 Z " /><path fill="rgb(205,239,243)" stroke="rgb(205,239,243)" stroke-width="1" opacity="0.996078431372549" d="M 646.5 340 L 647 342.5 L 646 342.5 L 646.5 340 Z " /><path fill="rgb(205,239,243)" stroke="rgb(205,239,243)" stroke-width="1" opacity="0.996078431372549" d="M 114.5 343 L 115 346.5 L 114 346.5 L 114.5 343 Z " /><path fill="rgb(205,239,243)" stroke="rgb(205,239,243)" stroke-width="1" opacity="0.996078431372549" d="M 388.5 345 L 389.5 347 L 388.5 345 Z " /><path fill="rgb(205,239,243)" stroke="rgb(205,239,243)" stroke-width="1" opacity="0.996078431372549" d="M 390.5 348 L 391.5 350 L 390.5 348 Z " /><path fill="rgb(205,239,243)" stroke="rgb(205,239,243)" stroke-width="1" opacity="0.996078431372549" d="M 647.5 348 L 648 352.5 L 647 352.5 L 647.5 348 Z " /><path fill="rgb(205,239,243)" stroke="rgb(205,239,243)" stroke-width="1" opacity="0.996078431372549" d="M 113.5 352 L 114 357.5 L 113 357.5 L 113.5 352 Z " /><path fill="rgb(205,239,243)" stroke="rgb(205,239,243)" stroke-width="1" opacity="0.996078431372549" d="M 395.5 355 L 396.5 357 L 395.5 355 Z " /><path fill="rgb(205,239,243)" stroke="rgb(205,239,243)" stroke-width="1" opacity="0.996078431372549" d="M 397.5 358 L 398.5 360 L 397.5 358 Z " /><path fill="rgb(205,239,243)" stroke="rgb(205,239,243)" stroke-width="1" opacity="0.996078431372549" d="M 648.5 360 L 649 392.5 L 648 392.5 L 648.5 360 Z " /><path fill="rgb(205,239,243)" stroke="rgb(205,239,243)" stroke-width="1" opacity="0.996078431372549" d="M 112.5 368 L 113 385.5 L 112 385.5 L 112.5 368 Z " /><path fill="rgb(205,239,243)" stroke="rgb(205,239,243)" stroke-width="1" opacity="0.996078431372549" d="M 348.5 368 L 349.5 370 L 348.5 368 Z " /><path fill="rgb(205,239,243)" stroke="rgb(205,239,243)" stroke-width="1" opacity="0.996078431372549" d="M 404.5 368 L 405.5 370 L 404.5 368 Z " /><path fill="rgb(205,239,243)" stroke="rgb(205,239,243)" stroke-width="1" opacity="0.996078431372549" d="M 350.5 371 L 351.5 373 L 350.5 371 Z " /><path fill="rgb(205,239,243)" stroke="rgb(205,239,243)" stroke-width="1" opacity="0.996078431372549" d="M 406.5 371 L 407.5 373 L 406.5 371 Z " /><path fill="rgb(205,239,243)" stroke="rgb(205,239,243)" stroke-width="1" opacity="0.996078431372549" d="M 355.5 378 L 356.5 380 L 355.5 378 Z " /><path fill="rgb(205,239,243)" stroke="rgb(205,239,243)" stroke-width="1" opacity="0.996078431372549" d="M 411.5 378 L 412.5 380 L 411.5 378 Z " /><path fill="rgb(205,239,243)" stroke="rgb(205,239,243)" stroke-width="1" opacity="0.996078431372549" d="M 357.5 381 L 358.5 383 L 357.5 381 Z " /><path fill="rgb(205,239,243)" stroke="rgb(205,239,243)" stroke-width="1" opacity="0.996078431372549" d="M 362.5 388 L 363.5 390 L 362.5 388 Z " /><path fill="rgb(205,239,243)" stroke="rgb(205,239,243)" stroke-width="1" opacity="0.996078431372549" d="M 364.5 391 L 365.5 393 L 364.5 391 Z " /><path fill="rgb(205,239,243)" stroke="rgb(205,239,243)" stroke-width="1" opacity="0.996078431372549" d="M 366.5 394 L 367.5 396 L 366.5 394 Z " /><path fill="rgb(205,239,243)" stroke="rgb(205,239,243)" stroke-width="1" opacity="0.996078431372549" d="M 113.5 396 L 114 401.5 L 113 401.5 L 113.5 396 Z " /><path fill="rgb(205,239,243)" stroke="rgb(205,239,243)" stroke-width="1" opacity="0.996078431372549" d="M 371.5 401 L 372.5 403 L 371.5 401 Z " /><path fill="rgb(205,239,243)" stroke="rgb(205,239,243)" stroke-width="1" opacity="0.996078431372549" d="M 647.5 401 L 648 405.5 L 647 405.5 L 647.5 401 Z " /><path fill="rgb(205,239,243)" stroke="rgb(205,239,243)" stroke-width="1" opacity="0.996078431372549" d="M 373.5 404 L 374.5 406 L 373.5 404 Z " /><path fill="rgb(205,239,243)" stroke="rgb(205,239,243)" stroke-width="1" opacity="0.996078431372549" d="M 114.5 407 L 115 410.5 L 114 410.5 L 114.5 407 Z " /><path fill="rgb(205,239,243)" stroke="rgb(205,239,243)" stroke-width="1" opacity="0.996078431372549" d="M 378.5 411 L 379.5 413 L 378.5 411 Z " /><path fill="rgb(205,239,243)" stroke="rgb(205,239,243)" stroke-width="1" opacity="0.996078431372549" d="M 646.5 411 L 647 413.5 L 646 413.5 L 646.5 411 Z " /><path fill="rgb(205,239,243)" stroke="rgb(205,239,243)" stroke-width="1" opacity="0.996078431372549" d="M 380.5 414 L 381.5 416 L 380.5 414 Z " /><path fill="rgb(205,239,243)" stroke="rgb(205,239,243)" stroke-width="1" opacity="0.996078431372549" d="M 115.5 416 L 116 418.5 L 115 418.5 L 115.5 416 Z " /><path fill="rgb(205,239,243)" stroke="rgb(205,239,243)" stroke-width="1" opacity="0.996078431372549" d="M 645.5 418 L 646 420.5 L 645 420.5 L 645.5 418 Z " /><path fill="rgb(205,239,243)" stroke="rgb(205,239,243)" stroke-width="1" opacity="0.996078431372549" d="M 116.5 422 L 117 424.5 L 116 424.5 L 116.5 422 Z " /><path fill="rgb(205,239,243)" stroke="rgb(205,239,243)" stroke-width="1" opacity="0.996078431372549" d="M 387.5 424 L 388.5 426 L 387.5 424 Z " /><path fill="rgb(205,239,243)" stroke="rgb(205,239,243)" stroke-width="1" opacity="0.996078431372549" d="M 644.5 424 L 645 426.5 L 644 426.5 L 644.5 424 Z " /><path fill="rgb(205,239,243)" stroke="rgb(205,239,243)" stroke-width="1" opacity="0.996078431372549" d="M 389.5 427 L 390.5 429 L 389.5 427 Z " /><path fill="rgb(205,239,243)" stroke="rgb(205,239,243)" stroke-width="1" opacity="0.996078431372549" d="M 394.5 434 L 395.5 436 L 394.5 434 Z " /><path fill="rgb(205,239,243)" stroke="rgb(205,239,243)" stroke-width="1" opacity="0.996078431372549" d="M 396.5 437 L 397.5 439 L 396.5 437 Z " /><path fill="rgb(205,239,243)" stroke="rgb(205,239,243)" stroke-width="1" opacity="0.996078431372549" d="M 403.5 447 L 404.5 449 L 403.5 447 Z " /><path fill="rgb(205,239,243)" stroke="rgb(205,239,243)" stroke-width="1" opacity="0.996078431372549" d="M 405.5 450 L 406.5 452 L 405.5 450 Z " /><path fill="rgb(205,239,243)" stroke="rgb(205,239,243)" stroke-width="1" opacity="0.996078431372549" d="M 410.5 457 L 411.5 459 L 410.5 457 Z " /><path fill="rgb(205,239,243)" stroke="rgb(205,239,243)" stroke-width="1" opacity="0.996078431372549" d="M 412.5 460 L 413.5 462 L 412.5 460 Z " /><path fill="rgb(205,239,243)" stroke="rgb(205,239,243)" stroke-width="1" opacity="0.996078431372549" d="M 615.5 507 L 614.5 509 L 615.5 507 Z " /><path fill="rgb(205,239,243)" stroke="rgb(205,239,243)" stroke-width="1" opacity="0.996078431372549" d="M 150.5 515 L 151.5 517 L 150.5 515 Z " /><path fill="rgb(205,239,243)" stroke="rgb(205,239,243)" stroke-width="1" opacity="0.996078431372549" d="M 609.5 517 L 608.5 519 L 609.5 517 Z " /><path fill="rgb(205,239,243)" stroke="rgb(205,239,243)" stroke-width="1" opacity="0.996078431372549" d="M 152.5 518 L 153.5 520 L 152.5 518 Z " /><path fill="rgb(205,239,243)" stroke="rgb(205,239,243)" stroke-width="1" opacity="0.996078431372549" d="M 607.5 520 L 606.5 522 L 607.5 520 Z " /><path fill="rgb(205,239,243)" stroke="rgb(205,239,243)" stroke-width="1" opacity="0.996078431372549" d="M 600.5 530 L 599.5 532 L 600.5 530 Z " /><path fill="rgb(205,239,243)" stroke="rgb(205,239,243)" stroke-width="1" opacity="0.996078431372549" d="M 161.5 531 L 162.5 533 L 161.5 531 Z " /><path fill="rgb(205,239,243)" stroke="rgb(205,239,243)" stroke-width="1" opacity="0.996078431372549" d="M 598.5 533 L 597.5 535 L 598.5 533 Z " /><path fill="rgb(205,239,243)" stroke="rgb(205,239,243)" stroke-width="1" opacity="0.996078431372549" d="M 163.5 534 L 164.5 536 L 163.5 534 Z " /><path fill="rgb(205,239,243)" stroke="rgb(205,239,243)" stroke-width="1" opacity="0.996078431372549" d="M 596.5 536 L 595.5 538 L 596.5 536 Z " /><path fill="rgb(205,239,243)" stroke="rgb(205,239,243)" stroke-width="1" opacity="0.996078431372549" d="M 165.5 537 L 166.5 539 L 165.5 537 Z " /><path fill="rgb(205,239,243)" stroke="rgb(205,239,243)" stroke-width="1" opacity="0.996078431372549" d="M 594.5 539 L 593.5 541 L 594.5 539 Z " /><path fill="rgb(205,239,243)" stroke="rgb(205,239,243)" stroke-width="1" opacity="0.996078431372549" d="M 167.5 540 L 168.5 542 L 167.5 540 Z " /><path fill="rgb(205,239,243)" stroke="rgb(205,239,243)" stroke-width="1" opacity="0.996078431372549" d="M 174.5 550 L 175.5 552 L 174.5 550 Z " /><path fill="rgb(205,239,243)" stroke="rgb(205,239,243)" stroke-width="1" opacity="0.996078431372549" d="M 585.5 552 L 584.5 554 L 585.5 552 Z " /><path fill="rgb(205,239,243)" stroke="rgb(205,239,243)" stroke-width="1" opacity="0.996078431372549" d="M 176.5 553 L 177.5 555 L 176.5 553 Z " /><path fill="rgb(205,239,243)" stroke="rgb(205,239,243)" stroke-width="1" opacity="0.996078431372549" d="M 583.5 555 L 582.5 557 L 583.5 555 Z " /><path fill="rgb(205,239,243)" stroke="rgb(205,239,243)" stroke-width="1" opacity="0.996078431372549" d="M 178.5 556 L 179.5 558 L 178.5 556 Z " /><path fill="rgb(205,239,243)" stroke="rgb(205,239,243)" stroke-width="1" opacity="0.996078431372549" d="M 581.5 558 L 580.5 560 L 581.5 558 Z " /><path fill="rgb(205,239,243)" stroke="rgb(205,239,243)" stroke-width="1" opacity="0.996078431372549" d="M 180.5 559 L 181.5 561 L 180.5 559 Z " /><path fill="rgb(205,239,243)" stroke="rgb(205,239,243)" stroke-width="1" opacity="0.996078431372549" d="M 579.5 561 L 578.5 563 L 579.5 561 Z " /><path fill="rgb(205,239,243)" stroke="rgb(205,239,243)" stroke-width="1" opacity="0.996078431372549" d="M 189.5 572 L 190.5 574 L 189.5 572 Z " /><path fill="rgb(205,239,243)" stroke="rgb(205,239,243)" stroke-width="1" opacity="0.996078431372549" d="M 570.5 574 L 569.5 576 L 570.5 574 Z " /><path fill="rgb(205,239,243)" stroke="rgb(205,239,243)" stroke-width="1" opacity="0.996078431372549" d="M 191.5 575 L 192.5 577 L 191.5 575 Z " /><path fill="rgb(205,239,243)" stroke="rgb(205,239,243)" stroke-width="1" opacity="0.996078431372549" d="M 568.5 577 L 567.5 579 L 568.5 577 Z " /><path fill="rgb(205,239,243)" stroke="rgb(205,239,243)" stroke-width="1" opacity="0.996078431372549" d="M 193.5 578 L 194.5 580 L 193.5 578 Z " /><path fill="rgb(205,239,243)" stroke="rgb(205,239,243)" stroke-width="1" opacity="0.996078431372549" d="M 566.5 580 L 565.5 582 L 566.5 580 Z " /><path fill="rgb(205,239,243)" stroke="rgb(205,239,243)" stroke-width="1" opacity="0.996078431372549" d="M 195.5 581 L 196.5 583 L 195.5 581 Z " /><path fill="rgb(205,239,243)" stroke="rgb(205,239,243)" stroke-width="1" opacity="0.996078431372549" d="M 564.5 583 L 563.5 585 L 564.5 583 Z " /><path fill="rgb(205,239,243)" stroke="rgb(205,239,243)" stroke-width="1" opacity="0.996078431372549" d="M 204.5 594 L 205.5 596 L 204.5 594 Z " /><path fill="rgb(205,239,243)" stroke="rgb(205,239,243)" stroke-width="1" opacity="0.996078431372549" d="M 555.5 596 L 554.5 598 L 555.5 596 Z " /><path fill="rgb(205,239,243)" stroke="rgb(205,239,243)" stroke-width="1" opacity="0.996078431372549" d="M 206.5 597 L 207.5 599 L 206.5 597 Z " /><path fill="rgb(205,239,243)" stroke="rgb(205,239,243)" stroke-width="1" opacity="0.996078431372549" d="M 553.5 599 L 552.5 601 L 553.5 599 Z " /><path fill="rgb(205,239,243)" stroke="rgb(205,239,243)" stroke-width="1" opacity="0.996078431372549" d="M 208.5 600 L 209.5 602 L 208.5 600 Z " /><path fill="rgb(205,239,243)" stroke="rgb(205,239,243)" stroke-width="1" opacity="0.996078431372549" d="M 551.5 602 L 550.5 604 L 551.5 602 Z " /><path fill="rgb(205,239,243)" stroke="rgb(205,239,243)" stroke-width="1" opacity="0.996078431372549" d="M 210.5 603 L 211.5 605 L 210.5 603 Z " /><path fill="rgb(205,239,243)" stroke="rgb(205,239,243)" stroke-width="1" opacity="0.996078431372549" d="M 542.5 615 L 541.5 617 L 542.5 615 Z " /><path fill="rgb(205,239,243)" stroke="rgb(205,239,243)" stroke-width="1" opacity="0.996078431372549" d="M 219.5 616 L 220.5 618 L 219.5 616 Z " /><path fill="rgb(205,239,243)" stroke="rgb(205,239,243)" stroke-width="1" opacity="0.996078431372549" d="M 540.5 618 L 539.5 620 L 540.5 618 Z " /><path fill="rgb(205,239,243)" stroke="rgb(205,239,243)" stroke-width="1" opacity="0.996078431372549" d="M 221.5 619 L 222.5 621 L 221.5 619 Z " /><path fill="rgb(205,239,243)" stroke="rgb(205,239,243)" stroke-width="1" opacity="0.996078431372549" d="M 538.5 621 L 537.5 623 L 538.5 621 Z " /><path fill="rgb(205,239,243)" stroke="rgb(205,239,243)" stroke-width="1" opacity="0.996078431372549" d="M 223.5 622 L 224.5 624 L 223.5 622 Z " /><path fill="rgb(205,239,243)" stroke="rgb(205,239,243)" stroke-width="1" opacity="0.996078431372549" d="M 536.5 624 L 535.5 626 L 536.5 624 Z " /><path fill="rgb(205,239,243)" stroke="rgb(205,239,243)" stroke-width="1" opacity="0.996078431372549" d="M 232.5 635 L 233.5 637 L 232.5 635 Z " /><path fill="rgb(205,239,243)" stroke="rgb(205,239,243)" stroke-width="1" opacity="0.996078431372549" d="M 527.5 637 L 526.5 639 L 527.5 637 Z " /><path fill="rgb(205,239,243)" stroke="rgb(205,239,243)" stroke-width="1" opacity="0.996078431372549" d="M 234.5 638 L 235.5 640 L 234.5 638 Z " /><path fill="rgb(205,239,243)" stroke="rgb(205,239,243)" stroke-width="1" opacity="0.996078431372549" d="M 525.5 640 L 524.5 642 L 525.5 640 Z " /><path fill="rgb(205,239,243)" stroke="rgb(205,239,243)" stroke-width="1" opacity="0.996078431372549" d="M 236.5 641 L 237.5 643 L 236.5 641 Z " /><path fill="rgb(205,239,243)" stroke="rgb(205,239,243)" stroke-width="1" opacity="0.996078431372549" d="M 523.5 643 L 522.5 645 L 523.5 643 Z " /><path fill="rgb(205,239,243)" stroke="rgb(205,239,243)" stroke-width="1" opacity="0.996078431372549" d="M 238.5 644 L 239.5 646 L 238.5 644 Z " /><path fill="rgb(205,239,243)" stroke="rgb(205,239,243)" stroke-width="1" opacity="0.996078431372549" d="M 521.5 646 L 520.5 648 L 521.5 646 Z " /><path fill="rgb(205,239,243)" stroke="rgb(205,239,243)" stroke-width="1" opacity="0.996078431372549" d="M 247.5 657 L 248.5 659 L 247.5 657 Z " /><path fill="rgb(205,239,243)" stroke="rgb(205,239,243)" stroke-width="1" opacity="0.996078431372549" d="M 512.5 659 L 511.5 661 L 512.5 659 Z " /><path fill="rgb(205,239,243)" stroke="rgb(205,239,243)" stroke-width="1" opacity="0.996078431372549" d="M 249.5 660 L 250.5 662 L 249.5 660 Z " /><path fill="rgb(205,239,243)" stroke="rgb(205,239,243)" stroke-width="1" opacity="0.996078431372549" d="M 510.5 662 L 509.5 664 L 510.5 662 Z " /><path fill="rgb(205,239,243)" stroke="rgb(205,239,243)" stroke-width="1" opacity="0.996078431372549" d="M 251.5 663 L 252.5 665 L 251.5 663 Z " /><path fill="rgb(205,239,243)" stroke="rgb(205,239,243)" stroke-width="1" opacity="0.996078431372549" d="M 508.5 665 L 507.5 667 L 508.5 665 Z " /><path fill="rgb(205,239,243)" stroke="rgb(205,239,243)" stroke-width="1" opacity="0.996078431372549" d="M 253.5 666 L 254.5 668 L 253.5 666 Z " /><path fill="rgb(205,239,243)" stroke="rgb(205,239,243)" stroke-width="1" opacity="0.996078431372549" d="M 501.5 675 L 1025 675.5 L 501.5 676 L 501.5 675 Z " /><path fill="rgb(205,239,243)" stroke="rgb(205,239,243)" stroke-width="1" opacity="0.996078431372549" d="M 262.5 679 L 263.5 681 L 262.5 679 Z " /><path fill="rgb(205,239,243)" stroke="rgb(205,239,243)" stroke-width="1" opacity="0.996078431372549" d="M 264.5 682 L 265.5 684 L 264.5 682 Z " /><path fill="rgb(205,239,243)" stroke="rgb(205,239,243)" stroke-width="1" opacity="0.996078431372549" d="M 266.5 685 L 267.5 687 L 266.5 685 Z " /><path fill="rgb(205,239,243)" stroke="rgb(205,239,243)" stroke-width="1" opacity="0.996078431372549" d="M 275.5 698 L 276.5 700 L 275.5 698 Z " /><path fill="rgb(205,239,243)" stroke="rgb(205,239,243)" stroke-width="1" opacity="0.996078431372549" d="M 277.5 701 L 278.5 703 L 277.5 701 Z " /><path fill="rgb(205,239,243)" stroke="rgb(205,239,243)" stroke-width="1" opacity="0.996078431372549" d="M 279.5 704 L 280.5 706 L 279.5 704 Z " /><path fill="rgb(205,239,243)" stroke="rgb(205,239,243)" stroke-width="1" opacity="0.996078431372549" d="M 281.5 707 L 282.5 709 L 281.5 707 Z " /><path fill="rgb(205,239,243)" stroke="rgb(205,239,243)" stroke-width="1" opacity="0.996078431372549" d="M 290.5 720 L 291.5 722 L 290.5 720 Z " /><path fill="rgb(205,239,243)" stroke="rgb(205,239,243)" stroke-width="1" opacity="0.996078431372549" d="M 292.5 723 L 293.5 725 L 292.5 723 Z " /><path fill="rgb(205,239,243)" stroke="rgb(205,239,243)" stroke-width="1" opacity="0.996078431372549" d="M 294.5 726 L 295.5 728 L 294.5 726 Z " /><path fill="rgb(205,239,243)" stroke="rgb(205,239,243)" stroke-width="1" opacity="0.996078431372549" d="M 296.5 729 L 297.5 731 L 296.5 729 Z " /><path fill="rgb(205,239,243)" stroke="rgb(205,239,243)" stroke-width="1" opacity="0.996078431372549" d="M 305.5 742 L 306.5 744 L 305.5 742 Z " /><path fill="rgb(205,239,243)" stroke="rgb(205,239,243)" stroke-width="1" opacity="0.996078431372549" d="M 307.5 745 L 308.5 747 L 307.5 745 Z " /><path fill="rgb(205,239,243)" stroke="rgb(205,239,243)" stroke-width="1" opacity="0.996078431372549" d="M 309.5 748 L 310.5 750 L 309.5 748 Z " /><path fill="rgb(205,239,243)" stroke="rgb(205,239,243)" stroke-width="1" opacity="0.996078431372549" d="M 318.5 761 L 319.5 763 L 318.5 761 Z " /><path fill="rgb(205,239,243)" stroke="rgb(205,239,243)" stroke-width="1" opacity="0.996078431372549" d="M 320.5 764 L 321.5 766 L 320.5 764 Z " /><path fill="rgb(205,239,243)" stroke="rgb(205,239,243)" stroke-width="1" opacity="0.996078431372549" d="M 322.5 767 L 323.5 769 L 322.5 767 Z " /><path fill="rgb(205,239,243)" stroke="rgb(205,239,243)" stroke-width="1" opacity="0.996078431372549" d="M 324.5 770 L 325.5 772 L 324.5 770 Z " /><path fill="rgb(205,239,243)" stroke="rgb(205,239,243)" stroke-width="1" opacity="0.996078431372549" d="M 333.5 783 L 334.5 785 L 333.5 783 Z " /><path fill="rgb(205,239,243)" stroke="rgb(205,239,243)" stroke-width="1" opacity="0.996078431372549" d="M 335.5 786 L 336.5 788 L 335.5 786 Z " /><path fill="rgb(205,239,243)" stroke="rgb(205,239,243)" stroke-width="1" opacity="0.996078431372549" d="M 337.5 789 L 338.5 791 L 337.5 789 Z " /><path fill="rgb(205,239,243)" stroke="rgb(205,239,243)" stroke-width="1" opacity="0.996078431372549" d="M 339.5 792 L 340.5 794 L 339.5 792 Z " /><path fill="rgb(205,239,243)" stroke="rgb(205,239,243)" stroke-width="1" opacity="0.996078431372549" d="M 348.5 805 L 349.5 807 L 348.5 805 Z " /><path fill="rgb(205,239,243)" stroke="rgb(205,239,243)" stroke-width="1" opacity="0.996078431372549" d="M 350.5 808 L 351.5 810 L 350.5 808 Z " /><path fill="rgb(205,239,243)" stroke="rgb(205,239,243)" stroke-width="1" opacity="0.996078431372549" d="M 352.5 811 L 353.5 813 L 352.5 811 Z " /><path fill="rgb(205,239,243)" stroke="rgb(205,239,243)" stroke-width="1" opacity="0.996078431372549" d="M 354.5 814 L 355.5 816 L 354.5 814 Z " /><path fill="rgb(205,239,243)" stroke="rgb(205,239,243)" stroke-width="1" opacity="0.996078431372549" d="M 1024.5 815 L 1025 819.5 L 1024 819.5 L 1024.5 815 Z " /><path fill="rgb(205,239,243)" stroke="rgb(205,239,243)" stroke-width="1" opacity="0.996078431372549" d="M 361.5 824 L 362.5 826 L 361.5 824 Z " /><path fill="rgb(205,239,243)" stroke="rgb(205,239,243)" stroke-width="1" opacity="0.996078431372549" d="M 363.5 827 L 364.5 829 L 363.5 827 Z " /><path fill="rgb(205,239,243)" stroke="rgb(205,239,243)" stroke-width="1" opacity="0.996078431372549" d="M 365.5 830 L 366.5 832 L 365.5 830 Z " /><path fill="rgb(205,239,243)" stroke="rgb(205,239,243)" stroke-width="1" opacity="0.996078431372549" d="M 367.5 833 L 368.5 835 L 367.5 833 Z " /><path fill="rgb(205,239,243)" stroke="rgb(205,239,243)" stroke-width="1" opacity="0.996078431372549" d="M 373.5 842 L 377.5 846 L 1020 846.5 L 980 847.5 L 980.5 849 L 975 849.5 L 975.5 851 L 970 851.5 L 975 858.5 L 969 859.5 L 971 862.5 L 965 863.5 L 971.5 864 L 973 865.5 L 977 871.5 L 971.5 873 L 966.5 866 L 961 866.5 L 967 877 Q 963.2 876 962 878.5 L 962.5 880 Q 957.3 881.3 956 878.5 L 954.5 876 Q 948.4 874.8 949 877.5 L 954 884.5 L 953 884.5 Q 953.6 881.8 947.5 883 L 948 884.5 L 951 889.5 L 945 890.5 L 946 893 Q 940.2 894.5 938.5 891 L 933.5 891 L 935 893.5 L 937 899 L 932.5 900 L 929.5 896 L 924 896.5 L 927 903 L 922 903.5 L 922.5 905 L 920 900 L 914 900.5 L 920 910.5 L 913 911 L 911 906 L 905 906.5 L 909 914 L 898 915 L 900 918.5 L 887.5 919 Q 886.1 915.8 881 917 L 883.5 923 L 885 923.5 L 879 924 L 878.5 926 L 872 926 Q 873.4 922 866.5 924 L 867.5 929 L 863 929.5 L 863.5 931 Q 858.8 929.8 857.5 932 L 854.5 928 L 850 928.5 L 852 933 L 840 933.5 L 840.5 935 L 830 936 Q 831.4 940 824.5 938 L 818 939.5 L 822 944.5 L 816.5 945 L 812.5 940 L 806 940.5 L 807.5 943 Q 806.2 940.8 801.5 942 L 802.5 945 L 797 945.5 L 799 950 Q 793.6 951.5 792 948.5 Q 792.8 946.3 790.5 947 L 789.5 946 L 779 946 Q 778.3 949.4 781 950.5 L 775 951.5 L 776.5 954 L 764.5 954 Q 763.5 949 756.5 950 L 744 952.5 L 748 957.5 L 728.5 958 L 727 955 L 714 955.5 L 718 962 L 705.5 961 L 705.5 963 L 687.5 962 L 686 962.5 L 684.5 960 Q 678.4 958.8 679 961.5 L 679.5 963 L 674 963.5 L 674.5 965 L 669.5 966 L 645 966.5 L 645.5 968 L 632.5 968 Q 630.8 964.5 625 966 Q 626.4 969.7 620.5 968 L 609 970.5 L 609.5 972 L 577.5 972 Q 576 968.8 571 970 L 570.5 972 L 546.5 972 L 548.5 976 L 535.5 976 L 529 975 L 530 977.5 Q 523.3 980.3 512.5 979 L 510.5 977 Q 505 978.5 503.5 976 L 485.5 976 L 485.5 978 L 467 979 L 373.5 842 Z " /><path fill="rgb(0,217,56)" stroke="rgb(0,217,56)" stroke-width="1" opacity="1" d="M 287 286 L 289 286.5 L 289 465 L 349 465 L 349.5 371 L 415.5 465 L 471.5 465 L 472 464.5 L 472 286.5 L 474 286 L 475 293 Q 479.9 291.2 478 297.5 L 479 300 L 481 300 Q 479.5 306.3 483 305.5 L 483 309.5 L 484 312 L 639.5 312 L 641 313.5 L 647 346.5 L 648 373 L 638 374.5 L 648 375 Q 649.3 378 645.5 377 L 634 379.5 L 645 380.5 L 638.5 382 L 623.5 382 L 610 386.5 L 615 387.5 L 606.5 391 Q 600.3 389.3 598.5 392 L 596.5 392 L 593 393.5 L 595.5 394 L 597 393.5 Q 597.8 396.1 594.5 395 L 588 398.5 L 590.5 399 L 592 398.5 L 586 401.5 L 589.5 402 L 591.5 402 L 593 401.5 Q 590.8 400.3 593.5 399 L 594.5 402 L 596 401.5 L 595.5 398 L 597.5 402 L 601.5 402 L 615 402.5 L 590 411.5 L 598 413.5 L 586 418.5 L 589 419.5 L 578 424.5 L 591 425.5 L 577 431.5 L 580 432.5 L 569 437.5 L 572 438.5 L 566 441.5 L 572 442.5 L 568 444.5 L 570.5 445 L 572 444.5 L 563 449.5 L 565.5 450 L 567 449.5 L 562 452.5 L 564.5 453 L 566.5 453 L 580 453.5 L 561 461.5 L 565 462.5 L 562 463.5 L 566 464.5 L 557 468.5 L 560 469.5 L 554 472.5 L 560 473.5 L 556 475.5 L 559 476.5 L 547 482.5 L 550 483.5 L 542 487.5 L 545 488.5 L 534 494.5 L 537 495.5 Q 507.8 511.8 483.5 533 Q 453.8 557.8 428 586.5 Q 360.8 659.8 314.5 754 L 145 505.5 Q 128.8 476.7 120 440.5 L 116 419.5 L 115 405.5 L 114 404.5 L 113 363.5 L 114 362.5 L 114 349.5 L 115 348.5 L 116 334.5 L 121 312 L 276.5 312 L 277 310.5 L 278 305 L 281 305 L 281 300 Q 283.7 301.1 283 298.5 L 284 293 L 287 293 L 287 286 Z " /><path fill="rgb(0,217,56)" stroke="rgb(0,217,56)" stroke-width="1" opacity="1" d="M 348.5 286 L 352 288.5 L 354 291.5 Q 355.4 294.3 360 293 L 362 298 L 370 302.5 L 371.5 305 Q 376.5 304.5 377 308.5 Q 376.3 310.8 378.5 310 L 380.5 312 L 401 312 L 402 305 L 404 305 L 404 300 Q 406.7 301.1 406 298.5 L 407 293 Q 411.1 294.7 410 290.5 L 411 286 L 413 286.5 L 413 378.5 L 411 377.5 L 348.5 286 Z " /><path fill="rgb(0,217,56)" stroke="rgb(0,217,56)" stroke-width="1" opacity="1" d="M 598.5 395 L 597.5 397 L 598.5 395 Z " /><path fill="rgb(0,217,56)" stroke="rgb(0,217,56)" stroke-width="1" opacity="1" d="M 573.5 445 L 572.5 447 L 573.5 445 Z " /><path fill="rgb(249,253,255)" stroke="rgb(249,253,255)" stroke-width="1" opacity="0.9882352941176471" d="M 207.5 0 L 211 0.5 L 207.5 1 L 207.5 0 Z " /><path fill="rgb(249,253,255)" stroke="rgb(249,253,255)" stroke-width="1" opacity="0.9882352941176471" d="M 814.5 0 L 819 0.5 L 814.5 1 L 814.5 0 Z " /><path fill="rgb(249,253,255)" stroke="rgb(249,253,255)" stroke-width="1" opacity="0.9882352941176471" d="M 196.5 1 L 199 1.5 L 196.5 2 L 196.5 1 Z " /><path fill="rgb(249,253,255)" stroke="rgb(249,253,255)" stroke-width="1" opacity="0.9882352941176471" d="M 853.5 6 L 860.5 7 L 862 8.5 L 860.5 8 L 853.5 7 L 853.5 6 Z " /><path fill="rgb(249,253,255)" stroke="rgb(249,253,255)" stroke-width="1" opacity="0.9882352941176471" d="M 865.5 9 L 872 11.5 L 870.5 11 L 865.5 10 L 865.5 9 Z " /><path fill="rgb(249,253,255)" stroke="rgb(249,253,255)" stroke-width="1" opacity="0.9882352941176471" d="M 154.5 10 L 157 10.5 L 146.5 14 L 146.5 13 L 154.5 10 Z " /><path fill="rgb(249,253,255)" stroke="rgb(249,253,255)" stroke-width="1" opacity="0.9882352941176471" d="M 873.5 11 L 874.5 13 L 873.5 11 Z " /><path fill="rgb(249,253,255)" stroke="rgb(249,253,255)" stroke-width="1" opacity="0.9882352941176471" d="M 876.5 12 L 879 13.5 L 877.5 14 L 876.5 12 Z " /><path fill="rgb(249,253,255)" stroke="rgb(249,253,255)" stroke-width="1" opacity="0.9882352941176471" d="M 143.5 14 L 145 14.5 L 142.5 16 L 143.5 14 Z " /><path fill="rgb(249,253,255)" stroke="rgb(249,253,255)" stroke-width="1" opacity="0.9882352941176471" d="M 140.5 15 L 139.5 17 L 136.5 18 L 136.5 17 L 140.5 15 Z " /><path fill="rgb(249,253,255)" stroke="rgb(249,253,255)" stroke-width="1" opacity="0.9882352941176471" d="M 889.5 17 L 895 20.5 L 893.5 20 Q 889.5 19.5 889.5 17 Z " /><path fill="rgb(249,253,255)" stroke="rgb(249,253,255)" stroke-width="1" opacity="0.9882352941176471" d="M 131.5 19 L 130.5 21 L 127.5 22 L 127.5 21 L 131.5 19 Z " /><path fill="rgb(249,253,255)" stroke="rgb(249,253,255)" stroke-width="1" opacity="0.9882352941176471" d="M 899.5 22 L 905 24.5 L 903.5 25 L 899.5 23 L 899.5 22 Z " /><path fill="rgb(249,253,255)" stroke="rgb(249,253,255)" stroke-width="1" opacity="0.9882352941176471" d="M 117.5 26 L 119 26.5 L 115.5 28 L 115.5 27 L 117.5 26 Z " /><path fill="rgb(249,253,255)" stroke="rgb(249,253,255)" stroke-width="1" opacity="0.9882352941176471" d="M 909.5 27 L 912 28.5 L 910.5 29 L 909.5 27 Z " /><path fill="rgb(249,253,255)" stroke="rgb(249,253,255)" stroke-width="1" opacity="0.9882352941176471" d="M 113.5 28 L 112.5 30 L 113.5 28 Z " /><path fill="rgb(249,253,255)" stroke="rgb(249,253,255)" stroke-width="1" opacity="0.9882352941176471" d="M 108.5 31 L 110 31.5 L 103.5 35 L 103.5 34 L 108.5 31 Z " /><path fill="rgb(249,253,255)" stroke="rgb(249,253,255)" stroke-width="1" opacity="0.9882352941176471" d="M 920.5 34 L 923 35.5 L 921.5 35 L 920.5 34 Z " /><path fill="rgb(249,253,255)" stroke="rgb(249,253,255)" stroke-width="1" opacity="0.9882352941176471" d="M 926.5 37 L 928.5 40 L 926.5 37 Z " /><path fill="rgb(249,253,255)" stroke="rgb(249,253,255)" stroke-width="1" opacity="0.9882352941176471" d="M 94.5 40 L 96 40.5 L 93.5 42 L 94.5 40 Z " /><path fill="rgb(249,253,255)" stroke="rgb(249,253,255)" stroke-width="1" opacity="0.9882352941176471" d="M 932.5 42 L 941 48.5 L 937.5 46 L 932.5 43 L 932.5 42 Z " /><path fill="rgb(249,253,255)" stroke="rgb(249,253,255)" stroke-width="1" opacity="0.9882352941176471" d="M 86.5 46 L 83.5 50 L 77.5 55 L 82.5 49 L 86.5 46 Z " /><path fill="rgb(249,253,255)" stroke="rgb(249,253,255)" stroke-width="1" opacity="0.9882352941176471" d="M 942.5 49 L 944.5 52 L 942.5 49 Z " /><path fill="rgb(249,253,255)" stroke="rgb(249,253,255)" stroke-width="1" opacity="0.9882352941176471" d="M 946.5 53 L 951 56.5 L 947.5 54 L 946.5 53 Z " /><path fill="rgb(249,253,255)" stroke="rgb(249,253,255)" stroke-width="1" opacity="0.9882352941176471" d="M 75.5 55 L 72.5 59 L 75.5 55 Z " /><path fill="rgb(249,253,255)" stroke="rgb(249,253,255)" stroke-width="1" opacity="0.9882352941176471" d="M 952.5 58 L 953.5 60 L 952.5 58 Z " /><path fill="rgb(249,253,255)" stroke="rgb(249,253,255)" stroke-width="1" opacity="0.9882352941176471" d="M 70.5 60 L 60.5 71 L 70.5 60 Z " /><path fill="rgb(249,253,255)" stroke="rgb(249,253,255)" stroke-width="1" opacity="0.9882352941176471" d="M 955.5 61 L 966.5 73 L 955.5 61 Z " /><path fill="rgb(249,253,255)" stroke="rgb(249,253,255)" stroke-width="1" opacity="0.9882352941176471" d="M 58.5 72 L 55.5 76 L 58.5 72 Z " /><path fill="rgb(249,253,255)" stroke="rgb(249,253,255)" stroke-width="1" opacity="0.9882352941176471" d="M 968.5 74 L 972 78.5 L 971 78.5 L 968.5 74 Z " /><path fill="rgb(249,253,255)" stroke="rgb(249,253,255)" stroke-width="1" opacity="0.9882352941176471" d="M 54.5 77 L 53.5 79 L 54.5 77 Z " /><path fill="rgb(249,253,255)" stroke="rgb(249,253,255)" stroke-width="1" opacity="0.9882352941176471" d="M 51.5 80 L 50 82.5 L 46.5 87 L 49 83.5 L 51.5 80 Z " /><path fill="rgb(249,253,255)" stroke="rgb(249,253,255)" stroke-width="1" opacity="0.9882352941176471" d="M 973.5 80 L 983 92.5 L 982 92.5 L 973.5 80 Z " /><path fill="rgb(249,253,255)" stroke="rgb(249,253,255)" stroke-width="1" opacity="0.9882352941176471" d="M 43.5 90 L 44 91.5 L 40.5 96 L 40 94.5 L 43.5 90 Z " /><path fill="rgb(249,253,255)" stroke="rgb(249,253,255)" stroke-width="1" opacity="0.9882352941176471" d="M 985.5 96 L 987.5 99 L 985.5 96 Z " /><path fill="rgb(249,253,255)" stroke="rgb(249,253,255)" stroke-width="1" opacity="0.9882352941176471" d="M 988.5 100 L 991 103.5 L 989 102.5 L 988.5 100 Z " /><path fill="rgb(249,253,255)" stroke="rgb(249,253,255)" stroke-width="1" opacity="0.9882352941176471" d="M 992.5 106 L 994 108.5 L 992 107.5 L 992.5 106 Z " /><path fill="rgb(249,253,255)" stroke="rgb(249,253,255)" stroke-width="1" opacity="0.9882352941176471" d="M 32.5 107 L 32 108.5 L 30.5 111 L 31 109.5 L 32.5 107 Z " /><path fill="rgb(249,253,255)" stroke="rgb(249,253,255)" stroke-width="1" opacity="0.9882352941176471" d="M 994.5 110 L 995.5 112 L 994.5 110 Z " /><path fill="rgb(249,253,255)" stroke="rgb(249,253,255)" stroke-width="1" opacity="0.9882352941176471" d="M 28.5 113 L 29 114.5 L 27 115.5 L 28.5 113 Z " /><path fill="rgb(249,253,255)" stroke="rgb(249,253,255)" stroke-width="1" opacity="0.9882352941176471" d="M 996.5 113 L 998 115.5 L 996 114.5 L 996.5 113 Z " /><path fill="rgb(249,253,255)" stroke="rgb(249,253,255)" stroke-width="1" opacity="0.9882352941176471" d="M 26.5 117 L 27 118.5 L 20.5 130 L 21 128.5 L 26.5 117 Z " /><path fill="rgb(249,253,255)" stroke="rgb(249,253,255)" stroke-width="1" opacity="0.9882352941176471" d="M 999.5 119 L 1004 126.5 L 1002 125.5 L 999.5 119 Z " /><path fill="rgb(249,253,255)" stroke="rgb(249,253,255)" stroke-width="1" opacity="0.9882352941176471" d="M 19.5 131 L 20 132.5 L 18 133.5 L 19.5 131 Z " /><path fill="rgb(249,253,255)" stroke="rgb(249,253,255)" stroke-width="1" opacity="0.9882352941176471" d="M 1005.5 131 L 1007 133.5 L 1005 132.5 L 1005.5 131 Z " /><path fill="rgb(249,253,255)" stroke="rgb(249,253,255)" stroke-width="1" opacity="0.9882352941176471" d="M 17.5 136 L 18 137.5 L 16.5 140 L 16 138.5 L 17.5 136 Z " /><path fill="rgb(249,253,255)" stroke="rgb(249,253,255)" stroke-width="1" opacity="0.9882352941176471" d="M 1008.5 138 L 1010 141.5 L 1009 141.5 L 1008.5 138 Z " /><path fill="rgb(249,253,255)" stroke="rgb(249,253,255)" stroke-width="1" opacity="0.9882352941176471" d="M 15.5 141 L 16 142.5 L 14 143.5 L 15.5 141 Z " /><path fill="rgb(249,253,255)" stroke="rgb(249,253,255)" stroke-width="1" opacity="0.9882352941176471" d="M 14.5 145 L 14 146.5 L 13.5 148 L 13 146.5 L 14.5 145 Z " /><path fill="rgb(249,253,255)" stroke="rgb(249,253,255)" stroke-width="1" opacity="0.9882352941176471" d="M 1011.5 145 L 1013 148.5 L 1011 147.5 L 1011.5 145 Z " /><path fill="rgb(249,253,255)" stroke="rgb(249,253,255)" stroke-width="1" opacity="0.9882352941176471" d="M 1012.5 150 L 1013.5 152 L 1012.5 150 Z " /><path fill="rgb(249,253,255)" stroke="rgb(249,253,255)" stroke-width="1" opacity="0.9882352941176471" d="M 1013.5 153 L 1014.5 155 L 1013.5 153 Z " /><path fill="rgb(249,253,255)" stroke="rgb(249,253,255)" stroke-width="1" opacity="0.9882352941176471" d="M 1014.5 156 L 1016 158.5 L 1015 158.5 L 1014.5 156 Z " /><path fill="rgb(249,253,255)" stroke="rgb(249,253,255)" stroke-width="1" opacity="0.9882352941176471" d="M 9.5 160 L 9 161.5 L 8.5 164 L 8 161.5 L 9.5 160 Z " /><path fill="rgb(249,253,255)" stroke="rgb(249,253,255)" stroke-width="1" opacity="0.9882352941176471" d="M 1016.5 161 L 1018 166.5 L 1017 166.5 L 1016.5 161 Z " /><path fill="rgb(249,253,255)" stroke="rgb(249,253,255)" stroke-width="1" opacity="0.9882352941176471" d="M 1018.5 168 L 1020 173.5 L 1019 173.5 L 1018.5 168 Z " /><path fill="rgb(249,253,255)" stroke="rgb(249,253,255)" stroke-width="1" opacity="0.9882352941176471" d="M 5.5 173 L 6 176.5 L 5 176.5 L 5.5 173 Z " /><path fill="rgb(249,253,255)" stroke="rgb(249,253,255)" stroke-width="1" opacity="0.9882352941176471" d="M 1020.5 177 L 1021 180.5 L 1020 180.5 L 1020.5 177 Z " /><path fill="rgb(249,253,255)" stroke="rgb(249,253,255)" stroke-width="1" opacity="0.9882352941176471" d="M 4.5 178 L 5 180.5 L 4 180.5 L 4.5 178 Z " /><path fill="rgb(249,253,255)" stroke="rgb(249,253,255)" stroke-width="1" opacity="0.9882352941176471" d="M 2.5 189 L 3 191.5 L 2 191.5 L 2.5 189 Z " /><path fill="rgb(249,253,255)" stroke="rgb(249,253,255)" stroke-width="1" opacity="0.9882352941176471" d="M 1023.5 195 L 1024 197.5 L 1023 197.5 L 1023.5 195 Z " /><path fill="rgb(249,253,255)" stroke="rgb(249,253,255)" stroke-width="1" opacity="0.9882352941176471" d="M 1.5 197 L 2 199.5 L 1 199.5 L 1.5 197 Z " /><path fill="rgb(249,253,255)" stroke="rgb(249,253,255)" stroke-width="1" opacity="0.9882352941176471" d="M 1024.5 206 L 1025 209.5 L 1024 209.5 L 1024.5 206 Z " /><path fill="rgb(249,253,255)" stroke="rgb(249,253,255)" stroke-width="1" opacity="0.9882352941176471" d="M 0.5 209 L 1 213.5 L 0 213.5 L 0.5 209 Z " /><path fill="rgb(249,253,255)" stroke="rgb(249,253,255)" stroke-width="1" opacity="0.9882352941176471" d="M 0.5 388 L 1 804.5 L 0 804.5 L 0.5 388 Z " /><path fill="rgb(249,253,255)" stroke="rgb(249,253,255)" stroke-width="1" opacity="0.9882352941176471" d="M 0.5 811 L 1 815.5 L 0 815.5 L 0.5 811 Z " /><path fill="rgb(249,253,255)" stroke="rgb(249,253,255)" stroke-width="1" opacity="0.9882352941176471" d="M 1.5 825 L 2 827.5 L 1 827.5 L 1.5 825 Z " /><path fill="rgb(249,253,255)" stroke="rgb(249,253,255)" stroke-width="1" opacity="0.9882352941176471" d="M 2.5 833 L 3 835.5 L 2 835.5 L 2.5 833 Z " /><path fill="rgb(249,253,255)" stroke="rgb(249,253,255)" stroke-width="1" opacity="0.9882352941176471" d="M 6.5 853 L 7 855.5 L 6 855.5 L 6.5 853 Z " /><path fill="rgb(249,253,255)" stroke="rgb(249,253,255)" stroke-width="1" opacity="0.9882352941176471" d="M 7.5 857 L 8 859.5 L 7 859.5 L 7.5 857 Z " /><path fill="rgb(249,253,255)" stroke="rgb(249,253,255)" stroke-width="1" opacity="0.9882352941176471" d="M 8.5 862 L 10 864.5 L 8 863.5 L 8.5 862 Z " /><path fill="rgb(249,253,255)" stroke="rgb(249,253,255)" stroke-width="1" opacity="0.9882352941176471" d="M 1015.5 867 L 1014.5 869 L 1015.5 867 Z " /><path fill="rgb(249,253,255)" stroke="rgb(249,253,255)" stroke-width="1" opacity="0.9882352941176471" d="M 1012.5 876 L 1011.5 878 L 1012.5 876 Z " /><path fill="rgb(249,253,255)" stroke="rgb(249,253,255)" stroke-width="1" opacity="0.9882352941176471" d="M 13.5 878 L 14.5 880 L 13.5 878 Z " /><path fill="rgb(249,253,255)" stroke="rgb(249,253,255)" stroke-width="1" opacity="0.9882352941176471" d="M 1009.5 884 L 1009 885.5 L 1008.5 887 L 1008 885.5 L 1009.5 884 Z " /><path fill="rgb(249,253,255)" stroke="rgb(249,253,255)" stroke-width="1" opacity="0.9882352941176471" d="M 17.5 888 L 18.5 890 L 17.5 888 Z " /><path fill="rgb(249,253,255)" stroke="rgb(249,253,255)" stroke-width="1" opacity="0.9882352941176471" d="M 1006.5 891 L 1006 892.5 L 1005.5 894 L 1005 892.5 L 1006.5 891 Z " /><path fill="rgb(249,253,255)" stroke="rgb(249,253,255)" stroke-width="1" opacity="0.9882352941176471" d="M 21.5 897 L 26 905.5 L 25 905.5 L 21.5 897 Z " /><path fill="rgb(249,253,255)" stroke="rgb(249,253,255)" stroke-width="1" opacity="0.9882352941176471" d="M 997.5 909 L 997 910.5 L 995.5 914 L 995 912.5 L 997.5 909 Z " /><path fill="rgb(249,253,255)" stroke="rgb(249,253,255)" stroke-width="1" opacity="0.9882352941176471" d="M 993.5 916 L 993 917.5 L 992.5 919 L 992 917.5 L 993.5 916 Z " /><path fill="rgb(249,253,255)" stroke="rgb(249,253,255)" stroke-width="1" opacity="0.9882352941176471" d="M 34.5 921 L 37 924.5 L 36 924.5 L 34.5 921 Z " /><path fill="rgb(249,253,255)" stroke="rgb(249,253,255)" stroke-width="1" opacity="0.9882352941176471" d="M 990.5 921 L 989.5 923 L 990.5 921 Z " /><path fill="rgb(249,253,255)" stroke="rgb(249,253,255)" stroke-width="1" opacity="0.9882352941176471" d="M 988.5 924 L 987.5 926 L 988.5 924 Z " /><path fill="rgb(249,253,255)" stroke="rgb(249,253,255)" stroke-width="1" opacity="0.9882352941176471" d="M 38.5 926 L 42 931.5 L 40 930.5 L 38.5 926 Z " /><path fill="rgb(249,253,255)" stroke="rgb(249,253,255)" stroke-width="1" opacity="0.9882352941176471" d="M 986.5 927 L 985.5 929 L 986.5 927 Z " /><path fill="rgb(249,253,255)" stroke="rgb(249,253,255)" stroke-width="1" opacity="0.9882352941176471" d="M 982.5 932 L 983 933.5 L 978.5 939 L 979 937.5 L 982.5 932 Z " /><path fill="rgb(249,253,255)" stroke="rgb(249,253,255)" stroke-width="1" opacity="0.9882352941176471" d="M 43.5 933 L 48 939.5 L 46 938.5 L 43 934.5 L 43.5 933 Z " /><path fill="rgb(249,253,255)" stroke="rgb(249,253,255)" stroke-width="1" opacity="0.9882352941176471" d="M 49.5 941 L 52 944.5 L 50 943.5 L 49.5 941 Z " /><path fill="rgb(249,253,255)" stroke="rgb(249,253,255)" stroke-width="1" opacity="0.9882352941176471" d="M 975.5 942 L 974.5 944 L 975.5 942 Z " /><path fill="rgb(249,253,255)" stroke="rgb(249,253,255)" stroke-width="1" opacity="0.9882352941176471" d="M 972.5 945 L 971.5 947 L 972.5 945 Z " /><path fill="rgb(249,253,255)" stroke="rgb(249,253,255)" stroke-width="1" opacity="0.9882352941176471" d="M 54.5 947 L 61 954.5 L 55 949.5 L 54.5 947 Z " /><path fill="rgb(249,253,255)" stroke="rgb(249,253,255)" stroke-width="1" opacity="0.9882352941176471" d="M 970.5 948 L 967.5 952 L 970.5 948 Z " /><path fill="rgb(249,253,255)" stroke="rgb(249,253,255)" stroke-width="1" opacity="0.9882352941176471" d="M 965.5 953 L 953.5 966 L 965.5 953 Z " /><path fill="rgb(249,253,255)" stroke="rgb(249,253,255)" stroke-width="1" opacity="0.9882352941176471" d="M 70.5 964 L 78 970.5 L 76.5 970 L 70.5 964 Z " /><path fill="rgb(249,253,255)" stroke="rgb(249,253,255)" stroke-width="1" opacity="0.9882352941176471" d="M 951.5 967 L 948.5 971 L 951.5 967 Z " /><path fill="rgb(249,253,255)" stroke="rgb(249,253,255)" stroke-width="1" opacity="0.9882352941176471" d="M 946.5 971 L 945.5 973 L 946.5 971 Z " /><path fill="rgb(249,253,255)" stroke="rgb(249,253,255)" stroke-width="1" opacity="0.9882352941176471" d="M 80.5 973 L 84 975.5 L 82.5 975 L 80.5 973 Z " /><path fill="rgb(249,253,255)" stroke="rgb(249,253,255)" stroke-width="1" opacity="0.9882352941176471" d="M 943.5 974 L 942.5 976 L 943.5 974 Z " /><path fill="rgb(249,253,255)" stroke="rgb(249,253,255)" stroke-width="1" opacity="0.9882352941176471" d="M 85.5 977 L 92 981.5 L 90.5 982 L 85.5 977 Z " /><path fill="rgb(249,253,255)" stroke="rgb(249,253,255)" stroke-width="1" opacity="0.9882352941176471" d="M 938.5 978 L 937.5 980 L 936 979.5 L 938.5 978 Z " /><path fill="rgb(249,253,255)" stroke="rgb(249,253,255)" stroke-width="1" opacity="0.9882352941176471" d="M 934.5 981 L 933.5 983 L 932 982.5 L 934.5 981 Z " /><path fill="rgb(249,253,255)" stroke="rgb(249,253,255)" stroke-width="1" opacity="0.9882352941176471" d="M 93.5 983 L 96 984.5 L 94.5 985 L 93.5 983 Z " /><path fill="rgb(249,253,255)" stroke="rgb(249,253,255)" stroke-width="1" opacity="0.9882352941176471" d="M 925.5 987 L 924.5 989 L 925.5 987 Z " /><path fill="rgb(249,253,255)" stroke="rgb(249,253,255)" stroke-width="1" opacity="0.9882352941176471" d="M 103.5 990 L 106 991.5 L 104.5 991 L 103.5 990 Z " /><path fill="rgb(249,253,255)" stroke="rgb(249,253,255)" stroke-width="1" opacity="0.9882352941176471" d="M 917.5 992 L 919 992.5 L 916.5 994 L 917.5 992 Z " /><path fill="rgb(249,253,255)" stroke="rgb(249,253,255)" stroke-width="1" opacity="0.9882352941176471" d="M 108.5 993 L 111 994.5 L 109.5 994 L 108.5 993 Z " /><path fill="rgb(249,253,255)" stroke="rgb(249,253,255)" stroke-width="1" opacity="0.9882352941176471" d="M 912.5 995 L 914 995.5 L 909.5 998 L 910.5 996 L 912.5 995 Z " /><path fill="rgb(249,253,255)" stroke="rgb(249,253,255)" stroke-width="1" opacity="0.9882352941176471" d="M 115.5 997 L 132 1005.5 L 130.5 1005 L 115.5 998 L 115.5 997 Z " /><path fill="rgb(249,253,255)" stroke="rgb(249,253,255)" stroke-width="1" opacity="0.9882352941176471" d="M 892.5 1005 L 894 1005.5 L 890.5 1007 L 890.5 1006 L 892.5 1005 Z " /><path fill="rgb(249,253,255)" stroke="rgb(249,253,255)" stroke-width="1" opacity="0.9882352941176471" d="M 136.5 1007 L 139 1008.5 L 137.5 1008 L 136.5 1007 Z " /><path fill="rgb(249,253,255)" stroke="rgb(249,253,255)" stroke-width="1" opacity="0.9882352941176471" d="M 141.5 1009 L 144 1010.5 L 142.5 1010 L 141.5 1009 Z " /><path fill="rgb(249,253,255)" stroke="rgb(249,253,255)" stroke-width="1" opacity="0.9882352941176471" d="M 145.5 1010 L 146.5 1012 L 145.5 1010 Z " /><path fill="rgb(249,253,255)" stroke="rgb(249,253,255)" stroke-width="1" opacity="0.9882352941176471" d="M 874.5 1012 L 873.5 1014 L 874.5 1012 Z " /><path fill="rgb(249,253,255)" stroke="rgb(249,253,255)" stroke-width="1" opacity="0.9882352941176471" d="M 160.5 1015 L 164 1016.5 L 161.5 1017 L 160.5 1015 Z " /><path fill="rgb(249,253,255)" stroke="rgb(249,253,255)" stroke-width="1" opacity="0.9882352941176471" d="M 857.5 1017 L 860 1017.5 L 857.5 1018 L 857.5 1017 Z " /><path fill="rgb(249,253,255)" stroke="rgb(249,253,255)" stroke-width="1" opacity="0.9882352941176471" d="M 853.5 1018 L 856 1018.5 L 853.5 1019 L 853.5 1018 Z " /><path fill="rgb(249,253,255)" stroke="rgb(249,253,255)" stroke-width="1" opacity="0.9882352941176471" d="M 202.5 1023 L 205 1023.5 L 202.5 1024 L 202.5 1023 Z " /><path fill="rgb(249,253,255)" stroke="rgb(249,253,255)" stroke-width="1" opacity="0.9882352941176471" d="M 821.5 1023 L 824 1023.5 L 821.5 1024 L 821.5 1023 Z " /><path fill="rgb(249,253,255)" stroke="rgb(249,253,255)" stroke-width="1" opacity="0.9882352941176471" d="M 826.5 1023 L 829 1023.5 L 826.5 1024 L 826.5 1023 Z " /><path fill="rgb(249,253,255)" stroke="rgb(249,253,255)" stroke-width="1" opacity="0.9882352941176471" d="M 208.5 1024 L 213 1024.5 L 208.5 1025 L 208.5 1024 Z " /><path fill="rgb(249,253,255)" stroke="rgb(249,253,255)" stroke-width="1" opacity="0.9882352941176471" d="M 812.5 1024 L 817 1024.5 L 812.5 1025 L 812.5 1024 Z " /><path fill="rgb(244,252,255)" stroke="rgb(244,252,255)" stroke-width="1" opacity="0.996078431372549" d="M 435 284 L 471.5 284 L 472 284.5 L 472 465 L 435.5 465 L 435 464.5 L 435 284 Z " /><path fill="rgb(244,252,255)" stroke="rgb(244,252,255)" stroke-width="1" opacity="0.996078431372549" d="M 0.5 805 L 1 810.5 L 0 810.5 L 0.5 805 Z " /><path fill="rgb(244,252,255)" stroke="rgb(244,252,255)" stroke-width="1" opacity="0.996078431372549" d="M 373.5 843 L 374.5 845 L 373.5 843 Z " /><path fill="rgb(244,252,255)" stroke="rgb(244,252,255)" stroke-width="1" opacity="0.996078431372549" d="M 10.5 864 L 387.5 864 L 390 866.5 L 485 1006.5 L 495.5 1019 L 551.5 1018 L 552.5 1019 L 590.5 1019 L 591.5 1018 L 628.5 1018 L 629.5 1019 L 667.5 1019 L 668.5 1018 L 711.5 1018 L 712.5 1019 L 749.5 1019 Q 750.7 1016.8 755.5 1018 L 757.5 1016 L 760 1016.5 L 760.5 1018 L 761.5 1016 L 768 1016.5 L 768.5 1018 L 769.5 1016 L 776 1016.5 L 776.5 1018 L 777.5 1016 L 826 1016.5 L 826.5 1018 L 827.5 1016 L 834 1016.5 L 834.5 1018 L 835.5 1016 L 842 1016.5 L 842.5 1018 L 843.5 1016 L 846.5 1017 L 848 1016.5 L 846 1012.5 L 847 1012.5 L 848.5 1016 L 850 1014.5 L 848.5 1012 L 851 1012.5 Q 848.3 1014.3 852.5 1016 L 853 1014.5 L 852 1012.5 L 853 1012.5 L 853.5 1014 L 855.5 1012 L 858 1012.5 L 857.5 1015 Q 855.8 1011.2 854 1014.5 L 854.5 1016 Q 855.8 1013.7 857 1016.5 Q 854.7 1014.7 852.5 1019 Q 848.3 1018.3 847.5 1021 L 843.5 1021 Q 836.8 1020.3 833.5 1023 L 831.5 1022 L 824.5 1024 L 821.5 1023 L 817.5 1025 L 812.5 1024 L 811.5 1025 L 213.5 1025 L 202.5 1023 L 199.5 1024 L 193.5 1022 L 191.5 1023 L 186.5 1021 L 184.5 1021 L 181.5 1020 L 179.5 1021 L 176.5 1019 L 174.5 1019 L 171.5 1018 L 169.5 1018 L 167.5 1017 L 165.5 1017 L 160.5 1015 L 158.5 1015 L 147.5 1012 L 145.5 1010 Q 144 1012.5 142.5 1009 L 134.5 1007 L 112.5 996 L 104.5 990 L 102 990 L 102 988 L 99 988 L 99 986 L 96 986 Q 97.1 983.3 94.5 984 L 92 983 Q 93.1 980.3 90.5 981 L 84 977 L 82.5 974 L 78 971.5 L 76.5 969 L 61 955.5 L 54.5 947 L 52 945.5 L 49.5 941 Q 47.3 941.8 48 939.5 L 44 933 Q 41.3 934.1 42 931.5 L 39 926 Q 36 927.3 37 923.5 L 32 917.5 L 31 913 Q 28.3 914.1 29 911.5 L 18 890.5 L 18 888.5 L 14 880.5 Q 16.5 879 13 877.5 L 9 865.5 L 10.5 864 Z " /><path fill="rgb(244,252,255)" stroke="rgb(244,252,255)" stroke-width="1" opacity="0.996078431372549" d="M 972.5 946 L 971.5 948 L 972.5 946 Z " /><path fill="rgb(244,252,255)" stroke="rgb(244,252,255)" stroke-width="1" opacity="0.996078431372549" d="M 963.5 956 L 956.5 964 L 963.5 956 Z " /><path fill="rgb(244,252,255)" stroke="rgb(244,252,255)" stroke-width="1" opacity="0.996078431372549" d="M 947.5 971 L 946.5 973 L 947.5 971 Z " /><path fill="rgb(244,252,255)" stroke="rgb(244,252,255)" stroke-width="1" opacity="0.996078431372549" d="M 907.5 998 L 906.5 1000 L 898.5 1004 L 898 1002 L 907.5 998 Z " /><path fill="rgb(244,252,255)" stroke="rgb(244,252,255)" stroke-width="1" opacity="0.996078431372549" d="M 879.5 1010 L 880 1012 L 878 1011.5 L 879.5 1010 Z " /><path fill="rgb(244,252,255)" stroke="rgb(244,252,255)" stroke-width="1" opacity="0.996078431372549" d="M 843.5 1012 L 844.5 1014 L 843.5 1012 Z " /><path fill="rgb(244,252,255)" stroke="rgb(244,252,255)" stroke-width="1" opacity="0.996078431372549" d="M 864 1014 L 868 1014 L 868 1015.5 L 866.5 1015 L 864.5 1016 L 864 1014 Z " /><path fill="rgb(2,219,99)" stroke="rgb(2,219,99)" stroke-width="1" opacity="1" d="M 647.5 354 L 648 356.5 L 647 356.5 L 647.5 354 Z " /><path fill="rgb(2,219,99)" stroke="rgb(2,219,99)" stroke-width="1" opacity="1" d="M 113.5 358 L 114 361.5 L 113 361.5 L 113.5 358 Z " /><path fill="rgb(2,219,99)" stroke="rgb(2,219,99)" stroke-width="1" opacity="1" d="M 348.5 369 Q 351.3 370.2 349 371.5 L 348.5 465 L 348.5 369 Z " /><path fill="rgb(2,219,99)" stroke="rgb(2,219,99)" stroke-width="1" opacity="1" d="M 113.5 392 L 114 395.5 L 113 395.5 L 113.5 392 Z " /><path fill="rgb(2,219,99)" stroke="rgb(2,219,99)" stroke-width="1" opacity="1" d="M 647.5 397 L 648 399.5 L 647 399.5 L 647.5 397 Z " /><path fill="rgb(2,219,99)" stroke="rgb(2,219,99)" stroke-width="1" opacity="1" d="M 603.5 482 L 606 482.5 L 603.5 483 L 603.5 482 Z " /><path fill="rgb(2,219,99)" stroke="rgb(2,219,99)" stroke-width="1" opacity="1" d="M 592.5 486 L 612.5 486 L 618 487.5 L 586.5 488 L 586.5 487 Q 591.3 488.2 592.5 486 Z " /><path fill="rgb(2,219,99)" stroke="rgb(2,219,99)" stroke-width="1" opacity="1" d="M 592.5 489 L 609.5 489 L 623 492.5 L 604 525.5 L 385.5 845 L 378.5 846 L 374 842.5 L 320 763.5 L 320 760.5 Q 375 644 463.5 561 L 508.5 524 L 542.5 503 L 560 495.5 L 556 494.5 L 572.5 494 L 576.5 492 L 592.5 489 Z " /><path fill="rgb(2,219,99)" stroke="rgb(2,219,99)" stroke-width="1" opacity="1" d="M 309.5 747 L 310.5 749 L 309.5 747 Z " /><path fill="rgb(2,219,99)" stroke="rgb(2,219,99)" stroke-width="1" opacity="1" d="M 311.5 750 L 312.5 752 L 311.5 750 Z " /><path fill="rgb(2,219,99)" stroke="rgb(2,219,99)" stroke-width="1" opacity="1" d="M 313.5 753 L 314.5 755 L 313.5 753 Z " /><path fill="rgb(247,253,255)" stroke="rgb(247,253,255)" stroke-width="1" opacity="1" d="M 413 284 L 434.5 284 L 435 284.5 L 435 465 L 416.5 465 L 415 463.5 L 371 400.5 L 371 322.5 L 374 324.5 L 412.5 380 L 413 284 Z " /><path fill="rgb(247,253,255)" stroke="rgb(247,253,255)" stroke-width="1" opacity="1" d="M 1 679 L 261.5 679 L 264 681.5 L 363 826.5 L 362.5 828 L 365 829.5 L 373 841.5 L 373 843.5 L 378 848.5 L 388 863.5 L 9 864 L 4 842.5 L 3 830.5 L 2 829.5 L 2 819.5 L 1 818.5 L 1 679 Z " /><path fill="rgb(248,254,255)" stroke="rgb(248,254,255)" stroke-width="1" opacity="1" d="M 1 466 L 126.5 466 L 128 467.5 L 137 491.5 L 150 515.5 L 262 678.5 L 1 679 L 1 466 Z " /><path fill="rgb(248,254,255)" stroke="rgb(248,254,255)" stroke-width="1" opacity="1" d="M 634 466 L 1024 466 L 1024 675 L 503.5 675 L 503 673.5 L 612 514.5 Q 625.9 492.5 634 466 Z " /><path fill="rgb(239,251,254)" stroke="rgb(239,251,254)" stroke-width="1" opacity="0.9921568627450981" d="M 559.5 176 L 560.5 178 L 559.5 176 Z " /><path fill="rgb(239,251,254)" stroke="rgb(239,251,254)" stroke-width="1" opacity="0.9921568627450981" d="M 198.5 179 L 195.5 183 L 198.5 179 Z " /><path fill="rgb(239,251,254)" stroke="rgb(239,251,254)" stroke-width="1" opacity="0.9921568627450981" d="M 186.5 191 L 183.5 195 L 186.5 191 Z " /><path fill="rgb(239,251,254)" stroke="rgb(239,251,254)" stroke-width="1" opacity="0.9921568627450981" d="M 579.5 196 L 581.5 199 L 579.5 196 Z " /><path fill="rgb(239,251,254)" stroke="rgb(239,251,254)" stroke-width="1" opacity="0.9921568627450981" d="M 586.5 204 L 587.5 206 L 586.5 204 Z " /><path fill="rgb(239,251,254)" stroke="rgb(239,251,254)" stroke-width="1" opacity="0.9921568627450981" d="M 375.5 845 L 376.5 847 L 375.5 845 Z " /><path fill="rgb(239,251,254)" stroke="rgb(239,251,254)" stroke-width="1" opacity="0.9921568627450981" d="M 1020.5 846 L 1020 847.5 L 1017 861.5 L 1014 868.5 L 1014 870.5 L 1011 878.5 L 1011.5 880 Q 1008.9 879.2 1010 882.5 L 1004 895.5 L 1004 897.5 L 1000 903.5 L 1000 905.5 L 999 909 L 996 910.5 L 995 916 L 992 917.5 L 992 919.5 L 974 945 L 971 946.5 L 949.5 969 L 946.5 971 L 942 974 Q 943.1 976.7 940.5 976 L 915.5 994 L 898 1002 Q 899.3 1005 895.5 1004 L 889 1006 Q 890.3 1009.3 885.5 1008 L 883.5 1010 L 879.5 1010 L 872.5 1014 L 870.5 1014 Q 863.5 1012.5 864 1015.5 L 860.5 1017 L 854.5 1018 L 847.5 1017 L 845.5 1018 L 843 1016.5 L 842.5 1018 L 841.5 1016 L 839.5 1018 L 835 1016.5 L 834.5 1018 L 833.5 1016 L 831.5 1018 L 827 1016.5 L 826.5 1018 L 825.5 1016 L 823.5 1018 L 819.5 1016 L 781.5 1016 L 779.5 1018 L 777 1016.5 L 776.5 1018 L 775.5 1016 L 773.5 1018 L 769 1016.5 L 768.5 1018 L 767.5 1016 L 765.5 1018 L 761 1016.5 L 760.5 1018 L 759.5 1016 L 755.5 1018 Q 750.7 1016.8 749.5 1019 L 712.5 1019 L 711.5 1018 L 668.5 1018 L 667.5 1019 L 629.5 1019 L 628.5 1018 L 591.5 1018 L 590.5 1019 L 552.5 1019 L 551.5 1018 L 513.5 1018 L 512.5 1019 L 495.5 1019 L 490 1013.5 L 462 972.5 L 465 974.5 L 467 979 L 479.5 979 L 486 977.5 L 485.5 976 L 503.5 976 Q 505 978.5 510.5 977 L 512.5 979 L 524.5 979 L 530 977.5 L 529 975 L 535.5 976 L 548.5 976 L 546.5 972 L 570.5 972 Q 569.5 968.8 575.5 970 L 577.5 972 L 609.5 972 L 609.5 970 L 625 968 Q 623.6 964 630.5 966 L 632.5 968 L 645.5 968 L 645.5 966 L 669.5 966 L 675 964.5 L 674.5 963 L 680 962.5 L 679 960 Q 684.4 958.5 686 961.5 L 686.5 963 L 691.5 962 L 692.5 963 L 705.5 963 L 705.5 961 L 718 962 L 714 955.5 L 727 955 L 728.5 958 L 748 957.5 L 744 952.5 L 749 951.5 L 748.5 950 Q 750 952.5 755.5 951 L 760.5 950 L 764.5 954 L 776.5 954 L 775.5 951 L 781 950.5 Q 778.2 949.4 779 946 L 789.5 946 L 792 947 L 793.5 950 Q 799.6 951.3 799 948.5 L 797 945.5 L 803 944.5 L 801.5 942 L 807 941.5 L 806.5 940 Q 813.5 938.5 815 942.5 L 816.5 945 L 822 944.5 L 818 939.5 L 830 938 Q 828.6 934.3 834.5 936 L 841 934.5 L 840.5 933 L 851.5 933 L 852 931.5 L 850 928.5 L 854.5 928 L 857.5 932 L 864 930.5 L 863.5 929 L 868 928.5 L 866.5 924 Q 873.5 922.5 872.5 926 L 879 926 Q 877.6 922 884.5 924 L 884.5 923 L 882 921.5 L 881 917 Q 886.1 915.8 887.5 919 L 899.5 919 L 898 916.5 Q 897.4 913.8 903.5 915 L 909 914 L 905 906.5 L 911 906 L 913 911 L 920 910.5 L 914 900.5 L 920 900 L 921.5 904 L 927 903 L 924 896.5 L 929.5 896 L 932.5 900 L 937 899 L 933 891.5 L 938.5 891 Q 940.2 894.5 946 893 L 944 889.5 L 945.5 890 L 951 889.5 L 947 883.5 L 953 882.5 L 949 876 Q 954.4 874.5 956 877.5 L 957.5 880 L 963 879.5 Q 960.8 878.2 963.5 877 Q 967.9 878.5 967 875.5 L 961 866.5 L 966.5 866 L 971.5 873 L 977 871.5 L 971.5 864 L 965 863.5 L 971 862.5 L 969 859.5 L 975 858.5 L 970 851.5 L 976 850.5 L 975.5 849 L 981 848.5 L 980.5 847 L 1019.5 847 L 1020.5 846 Z " /><path fill="rgb(239,251,254)" stroke="rgb(239,251,254)" stroke-width="1" opacity="0.9921568627450981" d="M 388.5 864 L 389.5 866 L 388.5 864 Z " /><path fill="rgb(239,251,254)" stroke="rgb(239,251,254)" stroke-width="1" opacity="0.9921568627450981" d="M 390.5 867 L 391.5 869 L 390.5 867 Z " /><path fill="rgb(239,251,254)" stroke="rgb(239,251,254)" stroke-width="1" opacity="0.9921568627450981" d="M 958.5 872 L 959.5 874 L 958.5 872 Z " /><path fill="rgb(239,251,254)" stroke="rgb(239,251,254)" stroke-width="1" opacity="0.9921568627450981" d="M 960.5 875 L 961.5 877 L 960.5 875 Z " /><path fill="rgb(239,251,254)" stroke="rgb(239,251,254)" stroke-width="1" opacity="0.9921568627450981" d="M 399.5 880 L 400.5 882 L 399.5 880 Z " /><path fill="rgb(239,251,254)" stroke="rgb(239,251,254)" stroke-width="1" opacity="0.9921568627450981" d="M 401.5 883 L 402.5 885 L 401.5 883 Z " /><path fill="rgb(239,251,254)" stroke="rgb(239,251,254)" stroke-width="1" opacity="0.9921568627450981" d="M 403.5 886 L 404.5 888 L 403.5 886 Z " /><path fill="rgb(239,251,254)" stroke="rgb(239,251,254)" stroke-width="1" opacity="0.9921568627450981" d="M 942.5 886 L 943.5 888 L 942.5 886 Z " /><path fill="rgb(239,251,254)" stroke="rgb(239,251,254)" stroke-width="1" opacity="0.9921568627450981" d="M 405.5 889 L 406.5 891 L 405.5 889 Z " /><path fill="rgb(239,251,254)" stroke="rgb(239,251,254)" stroke-width="1" opacity="0.9921568627450981" d="M 414.5 902 L 415.5 904 L 414.5 902 Z " /><path fill="rgb(239,251,254)" stroke="rgb(239,251,254)" stroke-width="1" opacity="0.9921568627450981" d="M 416.5 905 L 417.5 907 L 416.5 905 Z " /><path fill="rgb(239,251,254)" stroke="rgb(239,251,254)" stroke-width="1" opacity="0.9921568627450981" d="M 418.5 908 L 419.5 910 L 418.5 908 Z " /><path fill="rgb(239,251,254)" stroke="rgb(239,251,254)" stroke-width="1" opacity="0.9921568627450981" d="M 420.5 911 L 421.5 913 L 420.5 911 Z " /><path fill="rgb(239,251,254)" stroke="rgb(239,251,254)" stroke-width="1" opacity="0.9921568627450981" d="M 429.5 924 L 430.5 926 L 429.5 924 Z " /><path fill="rgb(239,251,254)" stroke="rgb(239,251,254)" stroke-width="1" opacity="0.9921568627450981" d="M 431.5 927 L 432.5 929 L 431.5 927 Z " /><path fill="rgb(239,251,254)" stroke="rgb(239,251,254)" stroke-width="1" opacity="0.9921568627450981" d="M 433.5 930 L 434.5 932 L 433.5 930 Z " /><path fill="rgb(239,251,254)" stroke="rgb(239,251,254)" stroke-width="1" opacity="0.9921568627450981" d="M 435.5 933 L 437.5 936 L 435.5 933 Z " /><path fill="rgb(239,251,254)" stroke="rgb(239,251,254)" stroke-width="1" opacity="0.9921568627450981" d="M 438.5 937 L 439.5 939 L 438.5 937 Z " /><path fill="rgb(239,251,254)" stroke="rgb(239,251,254)" stroke-width="1" opacity="0.9921568627450981" d="M 440.5 940 L 441.5 942 L 440.5 940 Z " /><path fill="rgb(239,251,254)" stroke="rgb(239,251,254)" stroke-width="1" opacity="0.9921568627450981" d="M 442.5 943 L 443.5 945 L 442.5 943 Z " /><path fill="rgb(239,251,254)" stroke="rgb(239,251,254)" stroke-width="1" opacity="0.9921568627450981" d="M 447.5 950 L 448.5 952 L 447.5 950 Z " /><path fill="rgb(239,251,254)" stroke="rgb(239,251,254)" stroke-width="1" opacity="0.9921568627450981" d="M 449.5 953 L 450.5 955 L 449.5 953 Z " /><path fill="rgb(239,251,254)" stroke="rgb(239,251,254)" stroke-width="1" opacity="0.9921568627450981" d="M 451.5 956 L 452.5 958 L 451.5 956 Z " /><path fill="rgb(239,251,254)" stroke="rgb(239,251,254)" stroke-width="1" opacity="0.9921568627450981" d="M 453.5 959 L 454.5 961 L 453.5 959 Z " /><path fill="rgb(239,251,254)" stroke="rgb(239,251,254)" stroke-width="1" opacity="0.9921568627450981" d="M 455.5 962 L 456.5 964 L 455.5 962 Z " /><path fill="rgb(239,251,254)" stroke="rgb(239,251,254)" stroke-width="1" opacity="0.9921568627450981" d="M 457.5 965 L 459.5 968 L 457.5 965 Z " /><path fill="rgb(239,251,254)" stroke="rgb(239,251,254)" stroke-width="1" opacity="0.9921568627450981" d="M 460.5 969 L 461.5 971 L 460.5 969 Z " /><path fill="rgb(66,64,246)" stroke="rgb(66,64,246)" stroke-width="1" opacity="1" d="M 501 676 L 580 676 L 580 846 L 385 845.5 L 400 825.5 L 501 676 Z " /><path fill="rgb(66,76,245)" stroke="rgb(66,76,245)" stroke-width="1" opacity="1" d="M 580 676 L 733 676 L 733 846 L 580 846 L 580 676 Z " /><path fill="rgb(68,94,245)" stroke="rgb(68,94,245)" stroke-width="1" opacity="0.996078431372549" d="M 733 676 L 1025 676 L 1025 814.5 L 1024 815.5 L 1024 826.5 L 1023 827.5 L 1023 834.5 L 1021 846 L 733 846 L 733 676 Z " /><path fill="rgb(68,94,245)" stroke="rgb(68,94,245)" stroke-width="1" opacity="0.996078431372549" d="M 478.5 709 L 477.5 711 L 478.5 709 Z " /><path fill="rgb(68,94,245)" stroke="rgb(68,94,245)" stroke-width="1" opacity="0.996078431372549" d="M 463.5 731 L 462.5 733 L 463.5 731 Z " /><path fill="rgb(68,94,245)" stroke="rgb(68,94,245)" stroke-width="1" opacity="0.996078431372549" d="M 435.5 772 L 434.5 774 L 435.5 772 Z " /><path fill="rgb(68,94,245)" stroke="rgb(68,94,245)" stroke-width="1" opacity="0.996078431372549" d="M 420.5 794 L 419.5 796 L 420.5 794 Z " /><path fill="rgb(68,94,245)" stroke="rgb(68,94,245)" stroke-width="1" opacity="0.996078431372549" d="M 392.5 835 L 391.5 837 L 392.5 835 Z " /></svg>